<svg width="887" height="487" viewBox="0 0 887 487" fill="none" xmlns="http://www.w3.org/2000/svg">
<path d="M30.2664 467.838H867.961" stroke="#CCCCCC" stroke-dasharray="4 2"/>
<path d="M30.2664 352.631H867.961" stroke="#CCCCCC" stroke-dasharray="4 2"/>
<path d="M30.2664 237.424H867.961" stroke="#CCCCCC" stroke-dasharray="4 2"/>
<path d="M30.2664 122.217H867.961" stroke="#CCCCCC" stroke-dasharray="4 2"/>
<path d="M30.2664 7.01056H867.961" stroke="#CCCCCC" stroke-dasharray="4 2"/>
<path d="M30.7545 6.54319V468.305" stroke="#CCCCCC" stroke-dasharray="4 2"/>
<path d="M170.208 6.54319V468.305" stroke="#CCCCCC" stroke-dasharray="4 2"/>
<path d="M309.661 6.54319V468.305" stroke="#CCCCCC" stroke-dasharray="4 2"/>
<path d="M449.114 6.54319V468.305" stroke="#CCCCCC" stroke-dasharray="4 2"/>
<path d="M588.567 6.54319V468.305" stroke="#CCCCCC" stroke-dasharray="4 2"/>
<path d="M728.02 6.54319V468.305" stroke="#CCCCCC" stroke-dasharray="4 2"/>
<path d="M867.473 6.54319V468.305" stroke="#CCCCCC" stroke-dasharray="4 2"/>
<path d="M19.8175 466.882V468.183C19.8175 468.882 19.755 469.472 19.63 469.952C19.505 470.433 19.3253 470.819 19.0909 471.112C18.8565 471.405 18.5733 471.618 18.2413 471.751C17.9132 471.88 17.5421 471.944 17.128 471.944C16.7999 471.944 16.4972 471.903 16.2198 471.821C15.9425 471.739 15.6925 471.609 15.4698 471.429C15.2511 471.245 15.0636 471.007 14.9073 470.714C14.7511 470.421 14.6319 470.066 14.5499 469.648C14.4679 469.23 14.4269 468.741 14.4269 468.183V466.882C14.4269 466.183 14.4894 465.597 14.6144 465.124C14.7433 464.651 14.9249 464.273 15.1593 463.987C15.3937 463.698 15.6749 463.491 16.003 463.366C16.3351 463.241 16.7062 463.179 17.1163 463.179C17.4483 463.179 17.753 463.22 18.0304 463.302C18.3116 463.38 18.5616 463.507 18.7804 463.683C18.9991 463.855 19.1847 464.085 19.337 464.374C19.4933 464.659 19.6124 465.009 19.6944 465.423C19.7765 465.837 19.8175 466.323 19.8175 466.882ZM18.7276 468.359V466.7C18.7276 466.318 18.7042 465.982 18.6573 465.693C18.6144 465.4 18.5499 465.15 18.464 464.943C18.378 464.735 18.2687 464.568 18.1358 464.439C18.0069 464.31 17.8565 464.216 17.6847 464.157C17.5167 464.095 17.3272 464.064 17.1163 464.064C16.8585 464.064 16.63 464.112 16.4308 464.21C16.2315 464.304 16.0636 464.454 15.9269 464.661C15.794 464.868 15.6925 465.14 15.6222 465.476C15.5519 465.812 15.5167 466.22 15.5167 466.7V468.359C15.5167 468.741 15.5382 469.079 15.5812 469.372C15.628 469.665 15.6964 469.919 15.7862 470.134C15.8761 470.345 15.9854 470.519 16.1144 470.655C16.2433 470.792 16.3917 470.894 16.5597 470.96C16.7315 471.023 16.921 471.054 17.128 471.054C17.3937 471.054 17.6261 471.003 17.8253 470.901C18.0245 470.8 18.1905 470.642 18.3233 470.427C18.4601 470.208 18.5616 469.929 18.628 469.589C18.6944 469.245 18.7276 468.835 18.7276 468.359Z" fill="#333333"/>
<path d="M13.3019 355.73V356.62H7.71787V355.841L10.5128 352.73C10.8565 352.347 11.1222 352.023 11.3097 351.757C11.5011 351.488 11.6339 351.247 11.7081 351.036C11.7862 350.822 11.8253 350.603 11.8253 350.38C11.8253 350.099 11.7667 349.845 11.6495 349.618C11.5362 349.388 11.3683 349.204 11.1456 349.068C10.9229 348.931 10.6534 348.863 10.337 348.863C9.95811 348.863 9.6417 348.937 9.38779 349.085C9.13779 349.23 8.95029 349.433 8.82529 349.695C8.70029 349.956 8.63779 350.257 8.63779 350.597H7.55381C7.55381 350.117 7.65928 349.677 7.87021 349.279C8.08115 348.88 8.39365 348.564 8.80771 348.329C9.22178 348.091 9.73154 347.972 10.337 347.972C10.8761 347.972 11.337 348.068 11.7198 348.259C12.1026 348.447 12.3956 348.712 12.5987 349.056C12.8058 349.396 12.9093 349.794 12.9093 350.251C12.9093 350.501 12.8663 350.755 12.7804 351.013C12.6983 351.267 12.5831 351.521 12.4347 351.775C12.2901 352.029 12.1202 352.279 11.9249 352.525C11.7335 352.771 11.5284 353.013 11.3097 353.251L9.02451 355.73H13.3019ZM15.8331 352.56L14.9659 352.337L15.3937 348.089H19.7706V349.091H16.3136L16.0558 351.411C16.212 351.322 16.4093 351.238 16.6476 351.16C16.8897 351.081 17.1671 351.042 17.4796 351.042C17.8741 351.042 18.2276 351.111 18.5401 351.247C18.8526 351.38 19.1183 351.572 19.337 351.822C19.5597 352.072 19.7296 352.372 19.8468 352.724C19.964 353.076 20.0226 353.468 20.0226 353.902C20.0226 354.312 19.9659 354.689 19.8526 355.033C19.7433 355.376 19.5772 355.677 19.3546 355.935C19.1319 356.189 18.8507 356.386 18.5108 356.527C18.1749 356.667 17.7784 356.738 17.3214 356.738C16.9776 356.738 16.6515 356.691 16.3429 356.597C16.0382 356.499 15.7647 356.353 15.5226 356.158C15.2843 355.958 15.089 355.712 14.9366 355.419C14.7882 355.122 14.6944 354.775 14.6554 354.376H15.6866C15.7335 354.697 15.8272 354.966 15.9679 355.185C16.1085 355.404 16.2921 355.57 16.5187 355.683C16.7491 355.792 17.0167 355.847 17.3214 355.847C17.5792 355.847 17.8077 355.802 18.0069 355.712C18.2062 355.622 18.3741 355.493 18.5108 355.326C18.6476 355.158 18.7511 354.954 18.8214 354.716C18.8956 354.478 18.9327 354.21 18.9327 353.913C18.9327 353.644 18.8956 353.394 18.8214 353.163C18.7472 352.933 18.6358 352.732 18.4874 352.56C18.3429 352.388 18.1651 352.255 17.9542 352.161C17.7433 352.064 17.5011 352.015 17.2276 352.015C16.8644 352.015 16.589 352.064 16.4015 352.161C16.2179 352.259 16.0284 352.392 15.8331 352.56Z" fill="#333333"/>
<path d="M9.08311 237.353L8.21592 237.13L8.64365 232.882H13.0206V233.884H9.56357L9.30576 236.205C9.46201 236.115 9.65928 236.031 9.89756 235.953C10.1397 235.875 10.4171 235.836 10.7296 235.836C11.1241 235.836 11.4776 235.904 11.7901 236.041C12.1026 236.173 12.3683 236.365 12.587 236.615C12.8097 236.865 12.9796 237.166 13.0968 237.517C13.214 237.869 13.2726 238.261 13.2726 238.695C13.2726 239.105 13.2159 239.482 13.1026 239.826C12.9933 240.169 12.8272 240.47 12.6046 240.728C12.3819 240.982 12.1007 241.179 11.7608 241.32C11.4249 241.461 11.0284 241.531 10.5714 241.531C10.2276 241.531 9.90146 241.484 9.59287 241.39C9.28818 241.293 9.01475 241.146 8.77256 240.951C8.53428 240.752 8.33896 240.505 8.18662 240.212C8.03818 239.916 7.94443 239.568 7.90537 239.169H8.93662C8.9835 239.49 9.07725 239.759 9.21787 239.978C9.3585 240.197 9.54209 240.363 9.76865 240.476C9.99912 240.586 10.2667 240.64 10.5714 240.64C10.8292 240.64 11.0577 240.595 11.2569 240.505C11.4562 240.416 11.6241 240.287 11.7608 240.119C11.8976 239.951 12.0011 239.748 12.0714 239.509C12.1456 239.271 12.1827 239.003 12.1827 238.707C12.1827 238.437 12.1456 238.187 12.0714 237.957C11.9972 237.726 11.8858 237.525 11.7374 237.353C11.5929 237.181 11.4151 237.048 11.2042 236.955C10.9933 236.857 10.7511 236.808 10.4776 236.808C10.1144 236.808 9.83896 236.857 9.65146 236.955C9.46787 237.052 9.27842 237.185 9.08311 237.353ZM19.8175 236.468V237.769C19.8175 238.468 19.755 239.058 19.63 239.539C19.505 240.019 19.3253 240.406 19.0909 240.699C18.8565 240.992 18.5733 241.205 18.2413 241.337C17.9132 241.466 17.5421 241.531 17.128 241.531C16.7999 241.531 16.4972 241.49 16.2198 241.408C15.9425 241.326 15.6925 241.195 15.4698 241.015C15.2511 240.832 15.0636 240.593 14.9073 240.3C14.7511 240.007 14.6319 239.652 14.5499 239.234C14.4679 238.816 14.4269 238.328 14.4269 237.769V236.468C14.4269 235.769 14.4894 235.183 14.6144 234.711C14.7433 234.238 14.9249 233.859 15.1593 233.574C15.3937 233.285 15.6749 233.078 16.003 232.953C16.3351 232.828 16.7062 232.765 17.1163 232.765C17.4483 232.765 17.753 232.806 18.0304 232.888C18.3116 232.966 18.5616 233.093 18.7804 233.269C18.9991 233.441 19.1847 233.671 19.337 233.961C19.4933 234.246 19.6124 234.595 19.6944 235.009C19.7765 235.423 19.8175 235.91 19.8175 236.468ZM18.7276 237.945V236.287C18.7276 235.904 18.7042 235.568 18.6573 235.279C18.6144 234.986 18.5499 234.736 18.464 234.529C18.378 234.322 18.2687 234.154 18.1358 234.025C18.0069 233.896 17.8565 233.802 17.6847 233.744C17.5167 233.681 17.3272 233.65 17.1163 233.65C16.8585 233.65 16.63 233.699 16.4308 233.796C16.2315 233.89 16.0636 234.041 15.9269 234.248C15.794 234.455 15.6925 234.726 15.6222 235.062C15.5519 235.398 15.5167 235.806 15.5167 236.287V237.945C15.5167 238.328 15.5382 238.666 15.5812 238.959C15.628 239.252 15.6964 239.505 15.7862 239.72C15.8761 239.931 15.9854 240.105 16.1144 240.242C16.2433 240.378 16.3917 240.48 16.5597 240.546C16.7315 240.609 16.921 240.64 17.128 240.64C17.3937 240.64 17.6261 240.589 17.8253 240.488C18.0245 240.386 18.1905 240.228 18.3233 240.013C18.4601 239.794 18.5616 239.515 18.628 239.175C18.6944 238.832 18.7276 238.421 18.7276 237.945Z" fill="#333333"/>
<path d="M13.2257 117.676V118.285L9.69248 126.207H8.5499L12.0772 118.566H7.46006V117.676H13.2257ZM15.8331 122.146L14.9659 121.924L15.3937 117.676H19.7706V118.678H16.3136L16.0558 120.998C16.212 120.908 16.4093 120.824 16.6476 120.746C16.8897 120.668 17.1671 120.629 17.4796 120.629C17.8741 120.629 18.2276 120.697 18.5401 120.834C18.8526 120.967 19.1183 121.158 19.337 121.408C19.5597 121.658 19.7296 121.959 19.8468 122.31C19.964 122.662 20.0226 123.054 20.0226 123.488C20.0226 123.898 19.9659 124.275 19.8526 124.619C19.7433 124.963 19.5772 125.263 19.3546 125.521C19.1319 125.775 18.8507 125.972 18.5108 126.113C18.1749 126.254 17.7784 126.324 17.3214 126.324C16.9776 126.324 16.6515 126.277 16.3429 126.183C16.0382 126.086 15.7647 125.939 15.5226 125.744C15.2843 125.545 15.089 125.299 14.9366 125.006C14.7882 124.709 14.6944 124.361 14.6554 123.963H15.6866C15.7335 124.283 15.8272 124.553 15.9679 124.771C16.1085 124.99 16.2921 125.156 16.5187 125.269C16.7491 125.379 17.0167 125.433 17.3214 125.433C17.5792 125.433 17.8077 125.388 18.0069 125.299C18.2062 125.209 18.3741 125.08 18.5108 124.912C18.6476 124.744 18.7511 124.541 18.8214 124.303C18.8956 124.064 18.9327 123.797 18.9327 123.5C18.9327 123.23 18.8956 122.98 18.8214 122.75C18.7472 122.519 18.6358 122.318 18.4874 122.146C18.3429 121.974 18.1651 121.842 17.9542 121.748C17.7433 121.65 17.5011 121.601 17.2276 121.601C16.8644 121.601 16.589 121.65 16.4015 121.748C16.2179 121.845 16.0284 121.978 15.8331 122.146Z" fill="#333333"/>
<path d="M4.52451 2.42188V11H3.44053V3.77539L1.25498 4.57227V3.59375L4.35459 2.42188H4.52451ZM13.0675 6.05469V7.35547C13.0675 8.05469 13.005 8.64453 12.88 9.125C12.755 9.60547 12.5753 9.99219 12.3409 10.2852C12.1065 10.5781 11.8233 10.791 11.4913 10.9238C11.1632 11.0527 10.7921 11.1172 10.378 11.1172C10.0499 11.1172 9.74717 11.0762 9.46982 10.9941C9.19248 10.9121 8.94248 10.7812 8.71982 10.6016C8.50107 10.418 8.31357 10.1797 8.15732 9.88672C8.00107 9.59375 7.88193 9.23828 7.7999 8.82031C7.71787 8.40234 7.67686 7.91406 7.67686 7.35547V6.05469C7.67686 5.35547 7.73936 4.76953 7.86436 4.29688C7.99326 3.82422 8.1749 3.44531 8.40928 3.16016C8.64365 2.87109 8.9249 2.66406 9.25303 2.53906C9.58506 2.41406 9.95615 2.35156 10.3663 2.35156C10.6983 2.35156 11.003 2.39258 11.2804 2.47461C11.5616 2.55273 11.8116 2.67969 12.0304 2.85547C12.2491 3.02734 12.4347 3.25781 12.587 3.54688C12.7433 3.83203 12.8624 4.18164 12.9444 4.5957C13.0265 5.00977 13.0675 5.49609 13.0675 6.05469ZM11.9776 7.53125V5.87305C11.9776 5.49023 11.9542 5.1543 11.9073 4.86523C11.8644 4.57227 11.7999 4.32227 11.714 4.11523C11.628 3.9082 11.5187 3.74023 11.3858 3.61133C11.2569 3.48242 11.1065 3.38867 10.9347 3.33008C10.7667 3.26758 10.5772 3.23633 10.3663 3.23633C10.1085 3.23633 9.87998 3.28516 9.68076 3.38281C9.48154 3.47656 9.31357 3.62695 9.17686 3.83398C9.04404 4.04102 8.94248 4.3125 8.87217 4.64844C8.80186 4.98438 8.7667 5.39258 8.7667 5.87305V7.53125C8.7667 7.91406 8.78818 8.25195 8.83115 8.54492C8.87803 8.83789 8.94639 9.0918 9.03623 9.30664C9.12607 9.51758 9.23545 9.69141 9.36436 9.82812C9.49326 9.96484 9.6417 10.0664 9.80967 10.1328C9.98154 10.1953 10.171 10.2266 10.378 10.2266C10.6437 10.2266 10.8761 10.1758 11.0753 10.0742C11.2745 9.97266 11.4405 9.81445 11.5733 9.59961C11.7101 9.38086 11.8116 9.10156 11.878 8.76172C11.9444 8.41797 11.9776 8.00781 11.9776 7.53125ZM19.8175 6.05469V7.35547C19.8175 8.05469 19.755 8.64453 19.63 9.125C19.505 9.60547 19.3253 9.99219 19.0909 10.2852C18.8565 10.5781 18.5733 10.791 18.2413 10.9238C17.9132 11.0527 17.5421 11.1172 17.128 11.1172C16.7999 11.1172 16.4972 11.0762 16.2198 10.9941C15.9425 10.9121 15.6925 10.7812 15.4698 10.6016C15.2511 10.418 15.0636 10.1797 14.9073 9.88672C14.7511 9.59375 14.6319 9.23828 14.5499 8.82031C14.4679 8.40234 14.4269 7.91406 14.4269 7.35547V6.05469C14.4269 5.35547 14.4894 4.76953 14.6144 4.29688C14.7433 3.82422 14.9249 3.44531 15.1593 3.16016C15.3937 2.87109 15.6749 2.66406 16.003 2.53906C16.3351 2.41406 16.7062 2.35156 17.1163 2.35156C17.4483 2.35156 17.753 2.39258 18.0304 2.47461C18.3116 2.55273 18.5616 2.67969 18.7804 2.85547C18.9991 3.02734 19.1847 3.25781 19.337 3.54688C19.4933 3.83203 19.6124 4.18164 19.6944 4.5957C19.7765 5.00977 19.8175 5.49609 19.8175 6.05469ZM18.7276 7.53125V5.87305C18.7276 5.49023 18.7042 5.1543 18.6573 4.86523C18.6144 4.57227 18.5499 4.32227 18.464 4.11523C18.378 3.9082 18.2687 3.74023 18.1358 3.61133C18.0069 3.48242 17.8565 3.38867 17.6847 3.33008C17.5167 3.26758 17.3272 3.23633 17.1163 3.23633C16.8585 3.23633 16.63 3.28516 16.4308 3.38281C16.2315 3.47656 16.0636 3.62695 15.9269 3.83398C15.794 4.04102 15.6925 4.3125 15.6222 4.64844C15.5519 4.98438 15.5167 5.39258 15.5167 5.87305V7.53125C15.5167 7.91406 15.5382 8.25195 15.5812 8.54492C15.628 8.83789 15.6964 9.0918 15.7862 9.30664C15.8761 9.51758 15.9854 9.69141 16.1144 9.82812C16.2433 9.96484 16.3917 10.0664 16.5597 10.1328C16.7315 10.1953 16.921 10.2266 17.128 10.2266C17.3937 10.2266 17.6261 10.1758 17.8253 10.0742C18.0245 9.97266 18.1905 9.81445 18.3233 9.59961C18.4601 9.38086 18.5616 9.10156 18.628 8.76172C18.6944 8.41797 18.7276 8.00781 18.7276 7.53125Z" fill="#333333"/>
<path d="M20.1256 461.382H21.2213L24.0163 468.337L26.8053 461.382H27.9069L24.4381 469.914H23.5827L20.1256 461.382ZM19.7682 461.382H20.735L20.8932 466.586V469.914H19.7682V461.382ZM27.2916 461.382H28.2584V469.914H27.1334V466.586L27.2916 461.382ZM29.7936 466.814V466.679C29.7936 466.222 29.86 465.798 29.9928 465.408C30.1256 465.013 30.317 464.671 30.567 464.382C30.817 464.089 31.1198 463.863 31.4752 463.703C31.8307 463.539 32.2291 463.457 32.6706 463.457C33.1159 463.457 33.5163 463.539 33.8717 463.703C34.2311 463.863 34.5358 464.089 34.7858 464.382C35.0397 464.671 35.2331 465.013 35.3659 465.408C35.4987 465.798 35.5651 466.222 35.5651 466.679V466.814C35.5651 467.271 35.4987 467.695 35.3659 468.086C35.2331 468.476 35.0397 468.818 34.7858 469.111C34.5358 469.4 34.2331 469.627 33.8776 469.791C33.526 469.951 33.1276 470.031 32.6823 470.031C32.237 470.031 31.8366 469.951 31.4811 469.791C31.1256 469.627 30.8209 469.4 30.567 469.111C30.317 468.818 30.1256 468.476 29.9928 468.086C29.86 467.695 29.7936 467.271 29.7936 466.814ZM30.8776 466.679V466.814C30.8776 467.13 30.9147 467.429 30.9889 467.711C31.0631 467.988 31.1745 468.234 31.3229 468.449C31.4752 468.664 31.6647 468.834 31.8913 468.959C32.1178 469.08 32.3815 469.14 32.6823 469.14C32.9791 469.14 33.2389 469.08 33.4616 468.959C33.6881 468.834 33.8756 468.664 34.0241 468.449C34.1725 468.234 34.2838 467.988 34.3581 467.711C34.4362 467.429 34.4752 467.13 34.4752 466.814V466.679C34.4752 466.367 34.4362 466.072 34.3581 465.794C34.2838 465.513 34.1706 465.265 34.0182 465.05C33.8698 464.832 33.6823 464.66 33.4557 464.535C33.2331 464.41 32.9713 464.347 32.6706 464.347C32.3737 464.347 32.112 464.41 31.8854 464.535C31.6627 464.66 31.4752 464.832 31.3229 465.05C31.1745 465.265 31.0631 465.513 30.9889 465.794C30.9147 466.072 30.8776 466.367 30.8776 466.679ZM38.0084 464.927V469.914H36.9245V463.574H37.9498L38.0084 464.927ZM37.7506 466.503L37.2995 466.486C37.3034 466.052 37.3678 465.652 37.4928 465.285C37.6178 464.914 37.7936 464.591 38.0202 464.318C38.2467 464.044 38.5163 463.834 38.8288 463.685C39.1452 463.533 39.4948 463.457 39.8776 463.457C40.1901 463.457 40.4713 463.5 40.7213 463.586C40.9713 463.668 41.1842 463.8 41.36 463.984C41.5397 464.168 41.6764 464.406 41.7702 464.699C41.8639 464.988 41.9108 465.341 41.9108 465.759V469.914H40.8209V465.748C40.8209 465.416 40.7721 465.15 40.6745 464.951C40.5768 464.748 40.4342 464.601 40.2467 464.511C40.0592 464.418 39.8288 464.371 39.5553 464.371C39.2858 464.371 39.0397 464.427 38.817 464.541C38.5983 464.654 38.4088 464.81 38.2487 465.009C38.0924 465.209 37.9694 465.437 37.8795 465.695C37.7936 465.949 37.7506 466.218 37.7506 466.503ZM26.1315 482.683V474.914H27.2213V483.914H26.2252L26.1315 482.683ZM21.8659 480.814V480.691C21.8659 480.207 21.9245 479.767 22.0416 479.373C22.1627 478.974 22.3327 478.632 22.5514 478.347C22.7741 478.062 23.0377 477.843 23.3424 477.691C23.651 477.535 23.9948 477.457 24.3737 477.457C24.7721 477.457 25.1198 477.527 25.4166 477.668C25.7174 477.804 25.9713 478.005 26.1784 478.271C26.3893 478.533 26.5553 478.849 26.6764 479.22C26.7975 479.591 26.8815 480.011 26.9284 480.48V481.019C26.8854 481.484 26.8014 481.902 26.6764 482.273C26.5553 482.644 26.3893 482.961 26.1784 483.222C25.9713 483.484 25.7174 483.685 25.4166 483.826C25.1159 483.962 24.7643 484.031 24.362 484.031C23.9909 484.031 23.651 483.951 23.3424 483.791C23.0377 483.63 22.7741 483.406 22.5514 483.117C22.3327 482.828 22.1627 482.488 22.0416 482.097C21.9245 481.703 21.8659 481.275 21.8659 480.814ZM22.9557 480.691V480.814C22.9557 481.13 22.987 481.427 23.0495 481.705C23.1159 481.982 23.2174 482.226 23.3541 482.437C23.4909 482.648 23.6647 482.814 23.8756 482.935C24.0866 483.052 24.3385 483.111 24.6315 483.111C24.9909 483.111 25.2858 483.035 25.5163 482.882C25.7506 482.73 25.9381 482.529 26.0788 482.279C26.2194 482.029 26.3288 481.757 26.4069 481.464V480.052C26.36 479.837 26.2916 479.63 26.2018 479.431C26.1159 479.228 26.0026 479.048 25.862 478.892C25.7252 478.732 25.5553 478.605 25.3522 478.511C25.153 478.418 24.9166 478.371 24.6432 478.371C24.3463 478.371 24.0905 478.433 23.8756 478.558C23.6647 478.679 23.4909 478.847 23.3541 479.062C23.2174 479.273 23.1159 479.519 23.0495 479.8C22.987 480.078 22.9557 480.375 22.9557 480.691ZM32.6471 482.83V479.566C32.6471 479.316 32.5963 479.099 32.4948 478.916C32.3971 478.728 32.2487 478.584 32.0495 478.482C31.8502 478.38 31.6041 478.33 31.3112 478.33C31.0377 478.33 30.7975 478.377 30.5905 478.47C30.3873 478.564 30.2272 478.687 30.11 478.839C29.9967 478.992 29.9401 479.156 29.9401 479.332H28.8561C28.8561 479.105 28.9147 478.88 29.0319 478.658C29.1491 478.435 29.317 478.234 29.5358 478.054C29.7584 477.871 30.0241 477.726 30.3327 477.621C30.6452 477.511 30.9928 477.457 31.3756 477.457C31.8366 477.457 32.2428 477.535 32.5944 477.691C32.9498 477.847 33.2272 478.084 33.4264 478.4C33.6295 478.712 33.7311 479.105 33.7311 479.578V482.531C33.7311 482.742 33.7487 482.966 33.7838 483.205C33.8229 483.443 33.8795 483.648 33.9538 483.82V483.914H32.8229C32.7682 483.789 32.7252 483.623 32.694 483.416C32.6627 483.205 32.6471 483.009 32.6471 482.83ZM32.8346 480.07L32.8463 480.832H31.7506C31.442 480.832 31.1666 480.857 30.9245 480.908C30.6823 480.955 30.4791 481.027 30.3151 481.125C30.151 481.222 30.026 481.345 29.9401 481.494C29.8541 481.638 29.8112 481.808 29.8112 482.003C29.8112 482.203 29.8561 482.384 29.9459 482.548C30.0358 482.712 30.1706 482.843 30.3502 482.941C30.5338 483.035 30.7584 483.082 31.0241 483.082C31.3561 483.082 31.6491 483.011 31.903 482.871C32.1569 482.73 32.3581 482.558 32.5065 482.355C32.6588 482.152 32.7409 481.955 32.7526 481.763L33.2155 482.285C33.1881 482.449 33.1139 482.63 32.9928 482.83C32.8717 483.029 32.7096 483.22 32.5065 483.404C32.3073 483.584 32.069 483.734 31.7916 483.855C31.5182 483.972 31.2096 484.031 30.8659 484.031C30.4362 484.031 30.0592 483.947 29.735 483.779C29.4147 483.611 29.1647 483.386 28.985 483.105C28.8092 482.82 28.7213 482.502 28.7213 482.15C28.7213 481.81 28.7877 481.511 28.9206 481.253C29.0534 480.992 29.2448 480.775 29.4948 480.603C29.7448 480.427 30.0456 480.294 30.3971 480.205C30.7487 480.115 31.1413 480.07 31.5748 480.07H32.8346ZM37.1237 483.257L38.8873 477.574H40.0475L37.5045 484.892C37.4459 485.048 37.3678 485.216 37.2702 485.396C37.1764 485.58 37.0553 485.753 36.9069 485.918C36.7584 486.082 36.5788 486.214 36.3678 486.316C36.1608 486.421 35.9127 486.474 35.6237 486.474C35.5377 486.474 35.4284 486.462 35.2956 486.439C35.1627 486.416 35.069 486.396 35.0143 486.38L35.0084 485.502C35.0397 485.505 35.0885 485.509 35.1549 485.513C35.2252 485.521 35.2741 485.525 35.3014 485.525C35.5475 485.525 35.7565 485.492 35.9284 485.425C36.1002 485.363 36.2448 485.255 36.362 485.103C36.4831 484.955 36.5866 484.75 36.6725 484.488L37.1237 483.257ZM35.8288 477.574L37.4752 482.496L37.7565 483.638L36.9772 484.037L34.6452 477.574H35.8288Z" fill="#333333"/>
<path d="M161.622 461.382V469.914H160.509V461.382H161.622ZM164.365 461.382V462.308H157.773V461.382H164.365ZM168.782 468.449V463.574H169.872V469.914H168.835L168.782 468.449ZM168.988 467.113L169.439 467.101C169.439 467.523 169.394 467.914 169.304 468.273C169.218 468.628 169.077 468.937 168.882 469.199C168.687 469.461 168.431 469.666 168.115 469.814C167.798 469.959 167.413 470.031 166.96 470.031C166.652 470.031 166.368 469.986 166.111 469.896C165.857 469.806 165.638 469.668 165.454 469.48C165.271 469.293 165.128 469.048 165.027 468.748C164.929 468.447 164.88 468.086 164.88 467.664V463.574H165.964V467.675C165.964 467.961 165.995 468.197 166.058 468.384C166.124 468.568 166.212 468.714 166.322 468.824C166.435 468.929 166.56 469.003 166.697 469.046C166.837 469.089 166.982 469.111 167.13 469.111C167.591 469.111 167.956 469.023 168.226 468.847C168.495 468.668 168.689 468.427 168.806 468.127C168.927 467.822 168.988 467.484 168.988 467.113ZM174.156 470.031C173.714 470.031 173.314 469.957 172.954 469.808C172.599 469.656 172.292 469.443 172.034 469.169C171.781 468.896 171.585 468.572 171.449 468.197C171.312 467.822 171.243 467.412 171.243 466.966V466.72C171.243 466.205 171.32 465.746 171.472 465.343C171.624 464.937 171.831 464.593 172.093 464.312C172.355 464.031 172.652 463.818 172.984 463.673C173.316 463.529 173.659 463.457 174.015 463.457C174.468 463.457 174.859 463.535 175.187 463.691C175.519 463.847 175.79 464.066 176.001 464.347C176.212 464.625 176.368 464.953 176.47 465.332C176.572 465.707 176.622 466.117 176.622 466.562V467.048H171.888V466.164H175.538V466.082C175.523 465.8 175.464 465.527 175.363 465.261C175.265 464.996 175.109 464.777 174.894 464.605C174.679 464.433 174.386 464.347 174.015 464.347C173.769 464.347 173.542 464.4 173.335 464.505C173.128 464.607 172.95 464.759 172.802 464.962C172.654 465.166 172.538 465.414 172.456 465.707C172.374 466 172.333 466.337 172.333 466.72V466.966C172.333 467.267 172.374 467.55 172.456 467.816C172.542 468.078 172.665 468.308 172.825 468.507C172.99 468.707 173.187 468.863 173.417 468.976C173.652 469.089 173.917 469.146 174.214 469.146C174.597 469.146 174.921 469.068 175.187 468.912C175.452 468.755 175.685 468.546 175.884 468.285L176.54 468.806C176.404 469.013 176.23 469.211 176.019 469.398C175.808 469.586 175.548 469.738 175.24 469.855C174.935 469.972 174.574 470.031 174.156 470.031ZM181.579 468.232C181.579 468.076 181.544 467.931 181.474 467.798C181.407 467.662 181.269 467.539 181.058 467.429C180.851 467.316 180.538 467.218 180.12 467.136C179.769 467.062 179.45 466.974 179.165 466.873C178.884 466.771 178.644 466.648 178.445 466.503C178.249 466.359 178.099 466.189 177.993 465.994C177.888 465.798 177.835 465.57 177.835 465.308C177.835 465.058 177.89 464.822 177.999 464.599C178.113 464.377 178.271 464.179 178.474 464.007C178.681 463.836 178.929 463.701 179.218 463.603C179.507 463.505 179.829 463.457 180.185 463.457C180.693 463.457 181.126 463.546 181.486 463.726C181.845 463.906 182.12 464.146 182.312 464.447C182.503 464.744 182.599 465.074 182.599 465.437H181.515C181.515 465.261 181.462 465.091 181.357 464.927C181.255 464.759 181.105 464.621 180.906 464.511C180.71 464.402 180.47 464.347 180.185 464.347C179.884 464.347 179.64 464.394 179.452 464.488C179.269 464.578 179.134 464.693 179.048 464.834C178.966 464.974 178.925 465.123 178.925 465.279C178.925 465.396 178.945 465.502 178.984 465.595C179.027 465.685 179.101 465.769 179.206 465.847C179.312 465.921 179.46 465.992 179.652 466.058C179.843 466.125 180.087 466.191 180.384 466.257C180.904 466.375 181.331 466.515 181.667 466.679C182.003 466.843 182.253 467.044 182.417 467.283C182.581 467.521 182.663 467.81 182.663 468.15C182.663 468.427 182.605 468.681 182.488 468.912C182.374 469.142 182.208 469.341 181.99 469.509C181.775 469.673 181.517 469.802 181.216 469.896C180.919 469.986 180.585 470.031 180.214 470.031C179.656 470.031 179.183 469.931 178.796 469.732C178.409 469.533 178.116 469.275 177.917 468.959C177.718 468.642 177.618 468.308 177.618 467.957H178.708C178.724 468.253 178.81 468.49 178.966 468.666C179.122 468.837 179.314 468.961 179.54 469.035C179.767 469.105 179.991 469.14 180.214 469.14C180.511 469.14 180.759 469.101 180.958 469.023C181.161 468.945 181.316 468.837 181.421 468.701C181.527 468.564 181.579 468.408 181.579 468.232ZM165.747 482.683V474.914H166.837V483.914H165.841L165.747 482.683ZM161.482 480.814V480.691C161.482 480.207 161.54 479.767 161.657 479.373C161.779 478.974 161.949 478.632 162.167 478.347C162.39 478.062 162.654 477.843 162.958 477.691C163.267 477.535 163.611 477.457 163.99 477.457C164.388 477.457 164.736 477.527 165.032 477.668C165.333 477.804 165.587 478.005 165.794 478.271C166.005 478.533 166.171 478.849 166.292 479.22C166.413 479.591 166.497 480.011 166.544 480.48V481.019C166.501 481.484 166.417 481.902 166.292 482.273C166.171 482.644 166.005 482.961 165.794 483.222C165.587 483.484 165.333 483.685 165.032 483.826C164.732 483.962 164.38 484.031 163.978 484.031C163.607 484.031 163.267 483.951 162.958 483.791C162.654 483.63 162.39 483.406 162.167 483.117C161.949 482.828 161.779 482.488 161.657 482.097C161.54 481.703 161.482 481.275 161.482 480.814ZM162.572 480.691V480.814C162.572 481.13 162.603 481.427 162.665 481.705C162.732 481.982 162.833 482.226 162.97 482.437C163.107 482.648 163.281 482.814 163.491 482.935C163.702 483.052 163.954 483.111 164.247 483.111C164.607 483.111 164.902 483.035 165.132 482.882C165.366 482.73 165.554 482.529 165.695 482.279C165.835 482.029 165.945 481.757 166.023 481.464V480.052C165.976 479.837 165.907 479.63 165.818 479.431C165.732 479.228 165.618 479.048 165.478 478.892C165.341 478.732 165.171 478.605 164.968 478.511C164.769 478.418 164.532 478.371 164.259 478.371C163.962 478.371 163.706 478.433 163.491 478.558C163.281 478.679 163.107 478.847 162.97 479.062C162.833 479.273 162.732 479.519 162.665 479.8C162.603 480.078 162.572 480.375 162.572 480.691ZM172.263 482.83V479.566C172.263 479.316 172.212 479.099 172.111 478.916C172.013 478.728 171.865 478.584 171.665 478.482C171.466 478.38 171.22 478.33 170.927 478.33C170.654 478.33 170.413 478.377 170.206 478.47C170.003 478.564 169.843 478.687 169.726 478.839C169.613 478.992 169.556 479.156 169.556 479.332H168.472C168.472 479.105 168.531 478.88 168.648 478.658C168.765 478.435 168.933 478.234 169.152 478.054C169.374 477.871 169.64 477.726 169.949 477.621C170.261 477.511 170.609 477.457 170.991 477.457C171.452 477.457 171.859 477.535 172.21 477.691C172.566 477.847 172.843 478.084 173.042 478.4C173.245 478.712 173.347 479.105 173.347 479.578V482.531C173.347 482.742 173.365 482.966 173.4 483.205C173.439 483.443 173.495 483.648 173.57 483.82V483.914H172.439C172.384 483.789 172.341 483.623 172.31 483.416C172.279 483.205 172.263 483.009 172.263 482.83ZM172.45 480.07L172.462 480.832H171.366C171.058 480.832 170.782 480.857 170.54 480.908C170.298 480.955 170.095 481.027 169.931 481.125C169.767 481.222 169.642 481.345 169.556 481.494C169.47 481.638 169.427 481.808 169.427 482.003C169.427 482.203 169.472 482.384 169.562 482.548C169.652 482.712 169.786 482.843 169.966 482.941C170.15 483.035 170.374 483.082 170.64 483.082C170.972 483.082 171.265 483.011 171.519 482.871C171.773 482.73 171.974 482.558 172.122 482.355C172.275 482.152 172.357 481.955 172.368 481.763L172.831 482.285C172.804 482.449 172.73 482.63 172.609 482.83C172.488 483.029 172.325 483.22 172.122 483.404C171.923 483.584 171.685 483.734 171.407 483.855C171.134 483.972 170.825 484.031 170.482 484.031C170.052 484.031 169.675 483.947 169.351 483.779C169.031 483.611 168.781 483.386 168.601 483.105C168.425 482.82 168.337 482.502 168.337 482.15C168.337 481.81 168.404 481.511 168.536 481.253C168.669 480.992 168.861 480.775 169.111 480.603C169.361 480.427 169.661 480.294 170.013 480.205C170.365 480.115 170.757 480.07 171.191 480.07H172.45ZM176.74 483.257L178.503 477.574H179.663L177.12 484.892C177.062 485.048 176.984 485.216 176.886 485.396C176.792 485.58 176.671 485.753 176.523 485.918C176.374 486.082 176.195 486.214 175.984 486.316C175.777 486.421 175.529 486.474 175.24 486.474C175.154 486.474 175.044 486.462 174.911 486.439C174.779 486.416 174.685 486.396 174.63 486.38L174.624 485.502C174.656 485.505 174.704 485.509 174.771 485.513C174.841 485.521 174.89 485.525 174.917 485.525C175.163 485.525 175.372 485.492 175.544 485.425C175.716 485.363 175.861 485.255 175.978 485.103C176.099 484.955 176.202 484.75 176.288 484.488L176.74 483.257ZM175.445 477.574L177.091 482.496L177.372 483.638L176.593 484.037L174.261 477.574H175.445Z" fill="#333333"/>
<path d="M290.846 467.336L292.539 461.382H293.36L292.885 463.697L291.063 469.914H290.248L290.846 467.336ZM289.094 461.382L290.442 467.218L290.846 469.914H290.037L287.969 461.382H289.094ZM295.551 467.212L296.869 461.382H298L295.938 469.914H295.129L295.551 467.212ZM293.483 461.382L295.129 467.336L295.727 469.914H294.912L293.154 463.697L292.674 461.382H293.483ZM301.533 470.031C301.092 470.031 300.692 469.957 300.332 469.808C299.977 469.656 299.67 469.443 299.412 469.169C299.158 468.896 298.963 468.572 298.826 468.197C298.69 467.822 298.621 467.412 298.621 466.966V466.72C298.621 466.205 298.697 465.746 298.85 465.343C299.002 464.937 299.209 464.593 299.471 464.312C299.733 464.031 300.029 463.818 300.361 463.673C300.693 463.529 301.037 463.457 301.393 463.457C301.846 463.457 302.236 463.535 302.565 463.691C302.897 463.847 303.168 464.066 303.379 464.347C303.59 464.625 303.746 464.953 303.848 465.332C303.949 465.707 304 466.117 304 466.562V467.048H299.266V466.164H302.916V466.082C302.901 465.8 302.842 465.527 302.74 465.261C302.643 464.996 302.486 464.777 302.272 464.605C302.057 464.433 301.764 464.347 301.393 464.347C301.147 464.347 300.92 464.4 300.713 464.505C300.506 464.607 300.328 464.759 300.18 464.962C300.031 465.166 299.916 465.414 299.834 465.707C299.752 466 299.711 466.337 299.711 466.72V466.966C299.711 467.267 299.752 467.55 299.834 467.816C299.92 468.078 300.043 468.308 300.203 468.507C300.367 468.707 300.565 468.863 300.795 468.976C301.029 469.089 301.295 469.146 301.592 469.146C301.975 469.146 302.299 469.068 302.565 468.912C302.83 468.755 303.063 468.546 303.262 468.285L303.918 468.806C303.781 469.013 303.608 469.211 303.397 469.398C303.186 469.586 302.926 469.738 302.617 469.855C302.313 469.972 301.951 470.031 301.533 470.031ZM309.262 468.683V460.914H310.352V469.914H309.356L309.262 468.683ZM304.996 466.814V466.691C304.996 466.207 305.055 465.767 305.172 465.373C305.293 464.974 305.463 464.632 305.682 464.347C305.904 464.062 306.168 463.843 306.473 463.691C306.781 463.535 307.125 463.457 307.504 463.457C307.902 463.457 308.25 463.527 308.547 463.668C308.848 463.804 309.102 464.005 309.309 464.271C309.52 464.533 309.686 464.849 309.807 465.22C309.928 465.591 310.012 466.011 310.059 466.48V467.019C310.016 467.484 309.932 467.902 309.807 468.273C309.686 468.644 309.52 468.961 309.309 469.222C309.102 469.484 308.848 469.685 308.547 469.826C308.246 469.962 307.895 470.031 307.492 470.031C307.121 470.031 306.781 469.951 306.473 469.791C306.168 469.63 305.904 469.406 305.682 469.117C305.463 468.828 305.293 468.488 305.172 468.097C305.055 467.703 304.996 467.275 304.996 466.814ZM306.086 466.691V466.814C306.086 467.13 306.117 467.427 306.18 467.705C306.246 467.982 306.348 468.226 306.485 468.437C306.621 468.648 306.795 468.814 307.006 468.935C307.217 469.052 307.469 469.111 307.762 469.111C308.121 469.111 308.416 469.035 308.647 468.882C308.881 468.73 309.068 468.529 309.209 468.279C309.35 468.029 309.459 467.757 309.537 467.464V466.052C309.49 465.837 309.422 465.63 309.332 465.431C309.246 465.228 309.133 465.048 308.992 464.892C308.856 464.732 308.686 464.605 308.483 464.511C308.283 464.418 308.047 464.371 307.774 464.371C307.477 464.371 307.221 464.433 307.006 464.558C306.795 464.679 306.621 464.847 306.485 465.062C306.348 465.273 306.246 465.519 306.18 465.8C306.117 466.078 306.086 466.375 306.086 466.691ZM313.123 464.927V469.914H312.039V463.574H313.065L313.123 464.927ZM312.865 466.503L312.414 466.486C312.418 466.052 312.483 465.652 312.608 465.285C312.733 464.914 312.908 464.591 313.135 464.318C313.361 464.044 313.631 463.834 313.943 463.685C314.26 463.533 314.61 463.457 314.992 463.457C315.305 463.457 315.586 463.5 315.836 463.586C316.086 463.668 316.299 463.8 316.475 463.984C316.654 464.168 316.791 464.406 316.885 464.699C316.979 464.988 317.026 465.341 317.026 465.759V469.914H315.936V465.748C315.936 465.416 315.887 465.15 315.789 464.951C315.692 464.748 315.549 464.601 315.361 464.511C315.174 464.418 314.943 464.371 314.67 464.371C314.401 464.371 314.154 464.427 313.932 464.541C313.713 464.654 313.524 464.81 313.363 465.009C313.207 465.209 313.084 465.437 312.994 465.695C312.908 465.949 312.865 466.218 312.865 466.503ZM321.303 470.031C320.861 470.031 320.461 469.957 320.102 469.808C319.746 469.656 319.44 469.443 319.182 469.169C318.928 468.896 318.733 468.572 318.596 468.197C318.459 467.822 318.391 467.412 318.391 466.966V466.72C318.391 466.205 318.467 465.746 318.619 465.343C318.772 464.937 318.979 464.593 319.24 464.312C319.502 464.031 319.799 463.818 320.131 463.673C320.463 463.529 320.807 463.457 321.162 463.457C321.615 463.457 322.006 463.535 322.334 463.691C322.666 463.847 322.938 464.066 323.149 464.347C323.36 464.625 323.516 464.953 323.617 465.332C323.719 465.707 323.77 466.117 323.77 466.562V467.048H319.035V466.164H322.686V466.082C322.67 465.8 322.611 465.527 322.51 465.261C322.412 464.996 322.256 464.777 322.041 464.605C321.826 464.433 321.533 464.347 321.162 464.347C320.916 464.347 320.69 464.4 320.483 464.505C320.276 464.607 320.098 464.759 319.949 464.962C319.801 465.166 319.686 465.414 319.604 465.707C319.522 466 319.481 466.337 319.481 466.72V466.966C319.481 467.267 319.522 467.55 319.604 467.816C319.69 468.078 319.813 468.308 319.973 468.507C320.137 468.707 320.334 468.863 320.565 468.976C320.799 469.089 321.065 469.146 321.361 469.146C321.744 469.146 322.068 469.068 322.334 468.912C322.6 468.755 322.832 468.546 323.031 468.285L323.688 468.806C323.551 469.013 323.377 469.211 323.166 469.398C322.955 469.586 322.695 469.738 322.387 469.855C322.082 469.972 321.721 470.031 321.303 470.031ZM328.727 468.232C328.727 468.076 328.692 467.931 328.621 467.798C328.555 467.662 328.416 467.539 328.205 467.429C327.998 467.316 327.686 467.218 327.268 467.136C326.916 467.062 326.598 466.974 326.313 466.873C326.031 466.771 325.791 466.648 325.592 466.503C325.397 466.359 325.246 466.189 325.141 465.994C325.035 465.798 324.983 465.57 324.983 465.308C324.983 465.058 325.037 464.822 325.147 464.599C325.26 464.377 325.418 464.179 325.621 464.007C325.828 463.836 326.076 463.701 326.365 463.603C326.654 463.505 326.977 463.457 327.332 463.457C327.84 463.457 328.274 463.546 328.633 463.726C328.992 463.906 329.268 464.146 329.459 464.447C329.651 464.744 329.746 465.074 329.746 465.437H328.662C328.662 465.261 328.61 465.091 328.504 464.927C328.402 464.759 328.252 464.621 328.053 464.511C327.858 464.402 327.617 464.347 327.332 464.347C327.031 464.347 326.787 464.394 326.6 464.488C326.416 464.578 326.281 464.693 326.195 464.834C326.113 464.974 326.072 465.123 326.072 465.279C326.072 465.396 326.092 465.502 326.131 465.595C326.174 465.685 326.248 465.769 326.354 465.847C326.459 465.921 326.608 465.992 326.799 466.058C326.99 466.125 327.235 466.191 327.531 466.257C328.051 466.375 328.479 466.515 328.815 466.679C329.151 466.843 329.401 467.044 329.565 467.283C329.729 467.521 329.811 467.81 329.811 468.15C329.811 468.427 329.752 468.681 329.635 468.912C329.522 469.142 329.356 469.341 329.137 469.509C328.922 469.673 328.664 469.802 328.363 469.896C328.067 469.986 327.733 470.031 327.361 470.031C326.803 470.031 326.33 469.931 325.943 469.732C325.557 469.533 325.264 469.275 325.065 468.959C324.865 468.642 324.766 468.308 324.766 467.957H325.856C325.871 468.253 325.957 468.49 326.113 468.666C326.27 468.837 326.461 468.961 326.688 469.035C326.914 469.105 327.139 469.14 327.361 469.14C327.658 469.14 327.906 469.101 328.106 469.023C328.309 468.945 328.463 468.837 328.568 468.701C328.674 468.564 328.727 468.408 328.727 468.232ZM304.387 482.683V474.914H305.477V483.914H304.481L304.387 482.683ZM300.121 480.814V480.691C300.121 480.207 300.18 479.767 300.297 479.373C300.418 478.974 300.588 478.632 300.807 478.347C301.029 478.062 301.293 477.843 301.598 477.691C301.906 477.535 302.25 477.457 302.629 477.457C303.027 477.457 303.375 477.527 303.672 477.668C303.973 477.804 304.227 478.005 304.434 478.271C304.645 478.533 304.811 478.849 304.932 479.22C305.053 479.591 305.137 480.011 305.184 480.48V481.019C305.141 481.484 305.057 481.902 304.932 482.273C304.811 482.644 304.645 482.961 304.434 483.222C304.227 483.484 303.973 483.685 303.672 483.826C303.371 483.962 303.02 484.031 302.617 484.031C302.246 484.031 301.906 483.951 301.598 483.791C301.293 483.63 301.029 483.406 300.807 483.117C300.588 482.828 300.418 482.488 300.297 482.097C300.18 481.703 300.121 481.275 300.121 480.814ZM301.211 480.691V480.814C301.211 481.13 301.242 481.427 301.305 481.705C301.371 481.982 301.473 482.226 301.61 482.437C301.746 482.648 301.92 482.814 302.131 482.935C302.342 483.052 302.594 483.111 302.887 483.111C303.246 483.111 303.541 483.035 303.772 482.882C304.006 482.73 304.193 482.529 304.334 482.279C304.475 482.029 304.584 481.757 304.662 481.464V480.052C304.615 479.837 304.547 479.63 304.457 479.431C304.371 479.228 304.258 479.048 304.117 478.892C303.981 478.732 303.811 478.605 303.608 478.511C303.408 478.418 303.172 478.371 302.899 478.371C302.602 478.371 302.346 478.433 302.131 478.558C301.92 478.679 301.746 478.847 301.61 479.062C301.473 479.273 301.371 479.519 301.305 479.8C301.242 480.078 301.211 480.375 301.211 480.691ZM310.902 482.83V479.566C310.902 479.316 310.852 479.099 310.75 478.916C310.652 478.728 310.504 478.584 310.305 478.482C310.106 478.38 309.86 478.33 309.567 478.33C309.293 478.33 309.053 478.377 308.846 478.47C308.643 478.564 308.483 478.687 308.365 478.839C308.252 478.992 308.195 479.156 308.195 479.332H307.111C307.111 479.105 307.17 478.88 307.287 478.658C307.404 478.435 307.572 478.234 307.791 478.054C308.014 477.871 308.279 477.726 308.588 477.621C308.901 477.511 309.248 477.457 309.631 477.457C310.092 477.457 310.498 477.535 310.85 477.691C311.205 477.847 311.483 478.084 311.682 478.4C311.885 478.712 311.986 479.105 311.986 479.578V482.531C311.986 482.742 312.004 482.966 312.039 483.205C312.078 483.443 312.135 483.648 312.209 483.82V483.914H311.078C311.024 483.789 310.981 483.623 310.949 483.416C310.918 483.205 310.902 483.009 310.902 482.83ZM311.09 480.07L311.102 480.832H310.006C309.697 480.832 309.422 480.857 309.18 480.908C308.938 480.955 308.735 481.027 308.57 481.125C308.406 481.222 308.281 481.345 308.195 481.494C308.11 481.638 308.067 481.808 308.067 482.003C308.067 482.203 308.111 482.384 308.201 482.548C308.291 482.712 308.426 482.843 308.606 482.941C308.789 483.035 309.014 483.082 309.279 483.082C309.611 483.082 309.904 483.011 310.158 482.871C310.412 482.73 310.613 482.558 310.762 482.355C310.914 482.152 310.996 481.955 311.008 481.763L311.471 482.285C311.443 482.449 311.369 482.63 311.248 482.83C311.127 483.029 310.965 483.22 310.762 483.404C310.563 483.584 310.324 483.734 310.047 483.855C309.774 483.972 309.465 484.031 309.121 484.031C308.692 484.031 308.315 483.947 307.99 483.779C307.67 483.611 307.42 483.386 307.24 483.105C307.065 482.82 306.977 482.502 306.977 482.15C306.977 481.81 307.043 481.511 307.176 481.253C307.309 480.992 307.5 480.775 307.75 480.603C308 480.427 308.301 480.294 308.652 480.205C309.004 480.115 309.397 480.07 309.83 480.07H311.09ZM315.379 483.257L317.143 477.574H318.303L315.76 484.892C315.701 485.048 315.623 485.216 315.526 485.396C315.432 485.58 315.311 485.753 315.162 485.918C315.014 486.082 314.834 486.214 314.623 486.316C314.416 486.421 314.168 486.474 313.879 486.474C313.793 486.474 313.684 486.462 313.551 486.439C313.418 486.416 313.324 486.396 313.27 486.38L313.264 485.502C313.295 485.505 313.344 485.509 313.41 485.513C313.481 485.521 313.529 485.525 313.557 485.525C313.803 485.525 314.012 485.492 314.184 485.425C314.356 485.363 314.5 485.255 314.617 485.103C314.738 484.955 314.842 484.75 314.928 484.488L315.379 483.257ZM314.084 477.574L315.731 482.496L316.012 483.638L315.233 484.037L312.901 477.574H314.084Z" fill="#333333"/>
<path d="M437.928 461.382V469.914H436.815V461.382H437.928ZM440.671 461.382V462.308H434.079V461.382H440.671ZM442.856 460.914V469.914H441.772V460.914H442.856ZM442.598 466.503L442.147 466.486C442.151 466.052 442.215 465.652 442.34 465.285C442.465 464.914 442.641 464.591 442.868 464.318C443.094 464.044 443.364 463.834 443.676 463.685C443.993 463.533 444.342 463.457 444.725 463.457C445.038 463.457 445.319 463.5 445.569 463.586C445.819 463.668 446.032 463.8 446.208 463.984C446.387 464.168 446.524 464.406 446.618 464.699C446.712 464.988 446.758 465.341 446.758 465.759V469.914H445.669V465.748C445.669 465.416 445.62 465.15 445.522 464.951C445.424 464.748 445.282 464.601 445.094 464.511C444.907 464.418 444.676 464.371 444.403 464.371C444.133 464.371 443.887 464.427 443.665 464.541C443.446 464.654 443.256 464.81 443.096 465.009C442.94 465.209 442.817 465.437 442.727 465.695C442.641 465.949 442.598 466.218 442.598 466.503ZM452.26 468.449V463.574H453.35V469.914H452.313L452.26 468.449ZM452.465 467.113L452.917 467.101C452.917 467.523 452.872 467.914 452.782 468.273C452.696 468.628 452.555 468.937 452.36 469.199C452.165 469.461 451.909 469.666 451.592 469.814C451.276 469.959 450.891 470.031 450.438 470.031C450.13 470.031 449.846 469.986 449.589 469.896C449.335 469.806 449.116 469.668 448.932 469.48C448.749 469.293 448.606 469.048 448.505 468.748C448.407 468.447 448.358 468.086 448.358 467.664V463.574H449.442V467.675C449.442 467.961 449.473 468.197 449.536 468.384C449.602 468.568 449.69 468.714 449.799 468.824C449.913 468.929 450.038 469.003 450.174 469.046C450.315 469.089 450.46 469.111 450.608 469.111C451.069 469.111 451.434 469.023 451.704 468.847C451.973 468.668 452.167 468.427 452.284 468.127C452.405 467.822 452.465 467.484 452.465 467.113ZM456.087 464.57V469.914H455.003V463.574H456.057L456.087 464.57ZM458.067 463.539L458.061 464.546C457.971 464.527 457.885 464.515 457.803 464.511C457.725 464.503 457.635 464.5 457.534 464.5C457.284 464.5 457.063 464.539 456.872 464.617C456.68 464.695 456.518 464.804 456.385 464.945C456.253 465.086 456.147 465.253 456.069 465.449C455.995 465.64 455.946 465.851 455.922 466.082L455.618 466.257C455.618 465.875 455.655 465.515 455.729 465.179C455.807 464.843 455.926 464.546 456.087 464.289C456.247 464.027 456.45 463.824 456.696 463.679C456.946 463.531 457.243 463.457 457.587 463.457C457.665 463.457 457.755 463.466 457.856 463.486C457.958 463.502 458.028 463.519 458.067 463.539ZM462.76 468.232C462.76 468.076 462.725 467.931 462.655 467.798C462.589 467.662 462.45 467.539 462.239 467.429C462.032 467.316 461.719 467.218 461.301 467.136C460.95 467.062 460.631 466.974 460.346 466.873C460.065 466.771 459.825 466.648 459.626 466.503C459.43 466.359 459.28 466.189 459.174 465.994C459.069 465.798 459.016 465.57 459.016 465.308C459.016 465.058 459.071 464.822 459.18 464.599C459.294 464.377 459.452 464.179 459.655 464.007C459.862 463.836 460.11 463.701 460.399 463.603C460.688 463.505 461.01 463.457 461.366 463.457C461.874 463.457 462.307 463.546 462.667 463.726C463.026 463.906 463.301 464.146 463.493 464.447C463.684 464.744 463.78 465.074 463.78 465.437H462.696C462.696 465.261 462.643 465.091 462.538 464.927C462.436 464.759 462.286 464.621 462.087 464.511C461.891 464.402 461.651 464.347 461.366 464.347C461.065 464.347 460.821 464.394 460.633 464.488C460.45 464.578 460.315 464.693 460.229 464.834C460.147 464.974 460.106 465.123 460.106 465.279C460.106 465.396 460.126 465.502 460.165 465.595C460.208 465.685 460.282 465.769 460.387 465.847C460.493 465.921 460.641 465.992 460.833 466.058C461.024 466.125 461.268 466.191 461.565 466.257C462.085 466.375 462.512 466.515 462.848 466.679C463.184 466.843 463.434 467.044 463.598 467.283C463.762 467.521 463.844 467.81 463.844 468.15C463.844 468.427 463.786 468.681 463.669 468.912C463.555 469.142 463.389 469.341 463.171 469.509C462.956 469.673 462.698 469.802 462.397 469.896C462.1 469.986 461.766 470.031 461.395 470.031C460.837 470.031 460.364 469.931 459.977 469.732C459.59 469.533 459.297 469.275 459.098 468.959C458.899 468.642 458.799 468.308 458.799 467.957H459.889C459.905 468.253 459.991 468.49 460.147 468.666C460.303 468.837 460.495 468.961 460.721 469.035C460.948 469.105 461.172 469.14 461.395 469.14C461.692 469.14 461.94 469.101 462.139 469.023C462.342 468.945 462.497 468.837 462.602 468.701C462.708 468.564 462.76 468.408 462.76 468.232ZM444.491 482.683V474.914H445.581V483.914H444.585L444.491 482.683ZM440.225 480.814V480.691C440.225 480.207 440.284 479.767 440.401 479.373C440.522 478.974 440.692 478.632 440.911 478.347C441.133 478.062 441.397 477.843 441.702 477.691C442.01 477.535 442.354 477.457 442.733 477.457C443.131 477.457 443.479 477.527 443.776 477.668C444.077 477.804 444.331 478.005 444.538 478.271C444.749 478.533 444.915 478.849 445.036 479.22C445.157 479.591 445.241 480.011 445.288 480.48V481.019C445.245 481.484 445.161 481.902 445.036 482.273C444.915 482.644 444.749 482.961 444.538 483.222C444.331 483.484 444.077 483.685 443.776 483.826C443.475 483.962 443.124 484.031 442.721 484.031C442.35 484.031 442.01 483.951 441.702 483.791C441.397 483.63 441.133 483.406 440.911 483.117C440.692 482.828 440.522 482.488 440.401 482.097C440.284 481.703 440.225 481.275 440.225 480.814ZM441.315 480.691V480.814C441.315 481.13 441.346 481.427 441.409 481.705C441.475 481.982 441.577 482.226 441.714 482.437C441.85 482.648 442.024 482.814 442.235 482.935C442.446 483.052 442.698 483.111 442.991 483.111C443.35 483.111 443.645 483.035 443.876 482.882C444.11 482.73 444.297 482.529 444.438 482.279C444.579 482.029 444.688 481.757 444.766 481.464V480.052C444.719 479.837 444.651 479.63 444.561 479.431C444.475 479.228 444.362 479.048 444.221 478.892C444.085 478.732 443.915 478.605 443.712 478.511C443.512 478.418 443.276 478.371 443.003 478.371C442.706 478.371 442.45 478.433 442.235 478.558C442.024 478.679 441.85 478.847 441.714 479.062C441.577 479.273 441.475 479.519 441.409 479.8C441.346 480.078 441.315 480.375 441.315 480.691ZM451.006 482.83V479.566C451.006 479.316 450.956 479.099 450.854 478.916C450.756 478.728 450.608 478.584 450.409 478.482C450.21 478.38 449.964 478.33 449.671 478.33C449.397 478.33 449.157 478.377 448.95 478.47C448.747 478.564 448.587 478.687 448.469 478.839C448.356 478.992 448.299 479.156 448.299 479.332H447.215C447.215 479.105 447.274 478.88 447.391 478.658C447.508 478.435 447.676 478.234 447.895 478.054C448.118 477.871 448.383 477.726 448.692 477.621C449.005 477.511 449.352 477.457 449.735 477.457C450.196 477.457 450.602 477.535 450.954 477.691C451.309 477.847 451.587 478.084 451.786 478.4C451.989 478.712 452.09 479.105 452.09 479.578V482.531C452.09 482.742 452.108 482.966 452.143 483.205C452.182 483.443 452.239 483.648 452.313 483.82V483.914H451.182C451.128 483.789 451.085 483.623 451.053 483.416C451.022 483.205 451.006 483.009 451.006 482.83ZM451.194 480.07L451.206 480.832H450.11C449.801 480.832 449.526 480.857 449.284 480.908C449.042 480.955 448.839 481.027 448.674 481.125C448.51 481.222 448.385 481.345 448.299 481.494C448.214 481.638 448.171 481.808 448.171 482.003C448.171 482.203 448.215 482.384 448.305 482.548C448.395 482.712 448.53 482.843 448.71 482.941C448.893 483.035 449.118 483.082 449.383 483.082C449.715 483.082 450.008 483.011 450.262 482.871C450.516 482.73 450.717 482.558 450.866 482.355C451.018 482.152 451.1 481.955 451.112 481.763L451.575 482.285C451.547 482.449 451.473 482.63 451.352 482.83C451.231 483.029 451.069 483.22 450.866 483.404C450.667 483.584 450.428 483.734 450.151 483.855C449.878 483.972 449.569 484.031 449.225 484.031C448.796 484.031 448.419 483.947 448.094 483.779C447.774 483.611 447.524 483.386 447.344 483.105C447.169 482.82 447.081 482.502 447.081 482.15C447.081 481.81 447.147 481.511 447.28 481.253C447.413 480.992 447.604 480.775 447.854 480.603C448.104 480.427 448.405 480.294 448.756 480.205C449.108 480.115 449.501 480.07 449.934 480.07H451.194ZM455.483 483.257L457.247 477.574H458.407L455.864 484.892C455.805 485.048 455.727 485.216 455.63 485.396C455.536 485.58 455.415 485.753 455.266 485.918C455.118 486.082 454.938 486.214 454.727 486.316C454.52 486.421 454.272 486.474 453.983 486.474C453.897 486.474 453.788 486.462 453.655 486.439C453.522 486.416 453.428 486.396 453.374 486.38L453.368 485.502C453.399 485.505 453.448 485.509 453.514 485.513C453.585 485.521 453.633 485.525 453.661 485.525C453.907 485.525 454.116 485.492 454.288 485.425C454.46 485.363 454.604 485.255 454.721 485.103C454.842 484.955 454.946 484.75 455.032 484.488L455.483 483.257ZM454.188 477.574L455.835 482.496L456.116 483.638L455.337 484.037L453.005 477.574H454.188Z" fill="#333333"/>
<path d="M584.118 461.382V469.914H582.988V461.382H584.118ZM587.693 465.22V466.146H583.872V465.22H587.693ZM588.273 461.382V462.308H583.872V461.382H588.273ZM590.388 464.57V469.914H589.304V463.574H590.359L590.388 464.57ZM592.368 463.539L592.363 464.546C592.273 464.527 592.187 464.515 592.105 464.511C592.027 464.503 591.937 464.5 591.835 464.5C591.585 464.5 591.365 464.539 591.173 464.617C590.982 464.695 590.82 464.804 590.687 464.945C590.554 465.086 590.449 465.253 590.37 465.449C590.296 465.64 590.247 465.851 590.224 466.082L589.919 466.257C589.919 465.875 589.956 465.515 590.031 465.179C590.109 464.843 590.228 464.546 590.388 464.289C590.548 464.027 590.751 463.824 590.997 463.679C591.247 463.531 591.544 463.457 591.888 463.457C591.966 463.457 592.056 463.466 592.158 463.486C592.259 463.502 592.329 463.519 592.368 463.539ZM594.548 463.574V469.914H593.458V463.574H594.548ZM593.376 461.892C593.376 461.716 593.429 461.568 593.535 461.447C593.644 461.326 593.804 461.265 594.015 461.265C594.222 461.265 594.38 461.326 594.49 461.447C594.603 461.568 594.66 461.716 594.66 461.892C594.66 462.06 594.603 462.205 594.49 462.326C594.38 462.443 594.222 462.502 594.015 462.502C593.804 462.502 593.644 462.443 593.535 462.326C593.429 462.205 593.376 462.06 593.376 461.892ZM584.107 482.683V474.914H585.197V483.914H584.201L584.107 482.683ZM579.841 480.814V480.691C579.841 480.207 579.9 479.767 580.017 479.373C580.138 478.974 580.308 478.632 580.527 478.347C580.749 478.062 581.013 477.843 581.318 477.691C581.626 477.535 581.97 477.457 582.349 477.457C582.747 477.457 583.095 477.527 583.392 477.668C583.693 477.804 583.947 478.005 584.154 478.271C584.365 478.533 584.531 478.849 584.652 479.22C584.773 479.591 584.857 480.011 584.904 480.48V481.019C584.861 481.484 584.777 481.902 584.652 482.273C584.531 482.644 584.365 482.961 584.154 483.222C583.947 483.484 583.693 483.685 583.392 483.826C583.091 483.962 582.74 484.031 582.337 484.031C581.966 484.031 581.626 483.951 581.318 483.791C581.013 483.63 580.749 483.406 580.527 483.117C580.308 482.828 580.138 482.488 580.017 482.097C579.9 481.703 579.841 481.275 579.841 480.814ZM580.931 480.691V480.814C580.931 481.13 580.962 481.427 581.025 481.705C581.091 481.982 581.193 482.226 581.329 482.437C581.466 482.648 581.64 482.814 581.851 482.935C582.062 483.052 582.314 483.111 582.607 483.111C582.966 483.111 583.261 483.035 583.492 482.882C583.726 482.73 583.913 482.529 584.054 482.279C584.195 482.029 584.304 481.757 584.382 481.464V480.052C584.335 479.837 584.267 479.63 584.177 479.431C584.091 479.228 583.978 479.048 583.837 478.892C583.701 478.732 583.531 478.605 583.327 478.511C583.128 478.418 582.892 478.371 582.618 478.371C582.322 478.371 582.066 478.433 581.851 478.558C581.64 478.679 581.466 478.847 581.329 479.062C581.193 479.273 581.091 479.519 581.025 479.8C580.962 480.078 580.931 480.375 580.931 480.691ZM590.622 482.83V479.566C590.622 479.316 590.572 479.099 590.47 478.916C590.372 478.728 590.224 478.584 590.025 478.482C589.826 478.38 589.579 478.33 589.286 478.33C589.013 478.33 588.773 478.377 588.566 478.47C588.363 478.564 588.202 478.687 588.085 478.839C587.972 478.992 587.915 479.156 587.915 479.332H586.831C586.831 479.105 586.89 478.88 587.007 478.658C587.124 478.435 587.292 478.234 587.511 478.054C587.734 477.871 587.999 477.726 588.308 477.621C588.62 477.511 588.968 477.457 589.351 477.457C589.812 477.457 590.218 477.535 590.57 477.691C590.925 477.847 591.202 478.084 591.402 478.4C591.605 478.712 591.706 479.105 591.706 479.578V482.531C591.706 482.742 591.724 482.966 591.759 483.205C591.798 483.443 591.855 483.648 591.929 483.82V483.914H590.798C590.743 483.789 590.701 483.623 590.669 483.416C590.638 483.205 590.622 483.009 590.622 482.83ZM590.81 480.07L590.822 480.832H589.726C589.417 480.832 589.142 480.857 588.9 480.908C588.658 480.955 588.454 481.027 588.29 481.125C588.126 481.222 588.001 481.345 587.915 481.494C587.829 481.638 587.786 481.808 587.786 482.003C587.786 482.203 587.831 482.384 587.921 482.548C588.011 482.712 588.146 482.843 588.326 482.941C588.509 483.035 588.734 483.082 588.999 483.082C589.331 483.082 589.624 483.011 589.878 482.871C590.132 482.73 590.333 482.558 590.482 482.355C590.634 482.152 590.716 481.955 590.728 481.763L591.191 482.285C591.163 482.449 591.089 482.63 590.968 482.83C590.847 483.029 590.685 483.22 590.482 483.404C590.283 483.584 590.044 483.734 589.767 483.855C589.493 483.972 589.185 484.031 588.841 484.031C588.411 484.031 588.035 483.947 587.71 483.779C587.39 483.611 587.14 483.386 586.96 483.105C586.785 482.82 586.697 482.502 586.697 482.15C586.697 481.81 586.763 481.511 586.896 481.253C587.029 480.992 587.22 480.775 587.47 480.603C587.72 480.427 588.021 480.294 588.372 480.205C588.724 480.115 589.117 480.07 589.55 480.07H590.81ZM595.099 483.257L596.863 477.574H598.023L595.48 484.892C595.421 485.048 595.343 485.216 595.245 485.396C595.152 485.58 595.031 485.753 594.882 485.918C594.734 486.082 594.554 486.214 594.343 486.316C594.136 486.421 593.888 486.474 593.599 486.474C593.513 486.474 593.404 486.462 593.271 486.439C593.138 486.416 593.044 486.396 592.99 486.38L592.984 485.502C593.015 485.505 593.064 485.509 593.13 485.513C593.201 485.521 593.249 485.525 593.277 485.525C593.523 485.525 593.732 485.492 593.904 485.425C594.076 485.363 594.22 485.255 594.337 485.103C594.458 484.955 594.562 484.75 594.648 484.488L595.099 483.257ZM593.804 477.574L595.451 482.496L595.732 483.638L594.952 484.037L592.62 477.574H593.804Z" fill="#333333"/>
<path d="M719.32 467.757C719.32 467.558 719.289 467.382 719.227 467.23C719.168 467.074 719.062 466.933 718.91 466.808C718.762 466.683 718.555 466.564 718.289 466.451C718.027 466.337 717.695 466.222 717.293 466.105C716.871 465.98 716.49 465.841 716.15 465.689C715.811 465.533 715.519 465.355 715.277 465.156C715.035 464.957 714.85 464.728 714.721 464.47C714.592 464.212 714.527 463.918 714.527 463.586C714.527 463.253 714.596 462.947 714.732 462.666C714.869 462.384 715.064 462.14 715.318 461.933C715.576 461.722 715.883 461.558 716.238 461.441C716.594 461.324 716.99 461.265 717.428 461.265C718.068 461.265 718.611 461.388 719.057 461.634C719.506 461.877 719.848 462.195 720.082 462.589C720.316 462.98 720.434 463.398 720.434 463.843H719.309C719.309 463.523 719.24 463.24 719.103 462.994C718.967 462.744 718.76 462.548 718.482 462.408C718.205 462.263 717.853 462.191 717.428 462.191C717.025 462.191 716.693 462.252 716.432 462.373C716.17 462.494 715.975 462.658 715.846 462.865C715.721 463.072 715.658 463.308 715.658 463.574C715.658 463.753 715.695 463.918 715.769 464.066C715.848 464.211 715.967 464.345 716.127 464.47C716.291 464.595 716.498 464.711 716.748 464.816C717.002 464.921 717.305 465.023 717.656 465.121C718.141 465.257 718.559 465.41 718.91 465.578C719.262 465.746 719.551 465.935 719.777 466.146C720.008 466.353 720.178 466.589 720.287 466.855C720.4 467.117 720.457 467.414 720.457 467.746C720.457 468.093 720.387 468.408 720.246 468.689C720.105 468.97 719.904 469.211 719.643 469.41C719.381 469.609 719.066 469.763 718.699 469.873C718.336 469.978 717.93 470.031 717.48 470.031C717.086 470.031 716.697 469.976 716.314 469.867C715.936 469.757 715.59 469.593 715.277 469.375C714.969 469.156 714.721 468.886 714.533 468.566C714.35 468.242 714.258 467.867 714.258 467.441H715.383C715.383 467.734 715.439 467.986 715.553 468.197C715.666 468.404 715.82 468.576 716.016 468.712C716.215 468.849 716.439 468.951 716.689 469.017C716.943 469.08 717.207 469.111 717.48 469.111C717.875 469.111 718.209 469.056 718.482 468.947C718.756 468.837 718.963 468.681 719.103 468.478C719.248 468.275 719.32 468.035 719.32 467.757ZM725.473 468.83V465.566C725.473 465.316 725.422 465.099 725.32 464.916C725.223 464.728 725.074 464.584 724.875 464.482C724.676 464.38 724.43 464.33 724.137 464.33C723.863 464.33 723.623 464.377 723.416 464.47C723.213 464.564 723.053 464.687 722.936 464.839C722.822 464.992 722.766 465.156 722.766 465.332H721.682C721.682 465.105 721.74 464.88 721.857 464.658C721.975 464.435 722.143 464.234 722.361 464.054C722.584 463.871 722.85 463.726 723.158 463.621C723.471 463.511 723.818 463.457 724.201 463.457C724.662 463.457 725.068 463.535 725.42 463.691C725.775 463.847 726.053 464.084 726.252 464.4C726.455 464.712 726.557 465.105 726.557 465.578V468.531C726.557 468.742 726.574 468.966 726.609 469.205C726.648 469.443 726.705 469.648 726.779 469.82V469.914H725.648C725.594 469.789 725.551 469.623 725.519 469.416C725.488 469.205 725.473 469.009 725.473 468.83ZM725.66 466.07L725.672 466.832H724.576C724.268 466.832 723.992 466.857 723.75 466.908C723.508 466.955 723.305 467.027 723.141 467.125C722.977 467.222 722.852 467.345 722.766 467.494C722.68 467.638 722.637 467.808 722.637 468.003C722.637 468.203 722.682 468.384 722.771 468.548C722.861 468.712 722.996 468.843 723.176 468.941C723.359 469.035 723.584 469.082 723.85 469.082C724.182 469.082 724.475 469.011 724.728 468.871C724.982 468.73 725.184 468.558 725.332 468.355C725.484 468.152 725.566 467.955 725.578 467.763L726.041 468.285C726.014 468.449 725.939 468.63 725.818 468.83C725.697 469.029 725.535 469.22 725.332 469.404C725.133 469.584 724.894 469.734 724.617 469.855C724.344 469.972 724.035 470.031 723.691 470.031C723.262 470.031 722.885 469.947 722.561 469.779C722.24 469.611 721.99 469.386 721.811 469.105C721.635 468.82 721.547 468.502 721.547 468.15C721.547 467.81 721.613 467.511 721.746 467.253C721.879 466.992 722.07 466.775 722.32 466.603C722.57 466.427 722.871 466.294 723.223 466.205C723.574 466.115 723.967 466.07 724.4 466.07H725.66ZM730.916 463.574V464.406H727.488V463.574H730.916ZM728.648 462.033H729.732V468.343C729.732 468.558 729.766 468.72 729.832 468.83C729.898 468.939 729.984 469.011 730.09 469.046C730.195 469.082 730.309 469.099 730.43 469.099C730.519 469.099 730.613 469.091 730.711 469.076C730.812 469.056 730.889 469.041 730.939 469.029L730.945 469.914C730.859 469.941 730.746 469.966 730.605 469.99C730.469 470.017 730.303 470.031 730.107 470.031C729.842 470.031 729.598 469.978 729.375 469.873C729.152 469.767 728.975 469.591 728.842 469.345C728.713 469.095 728.648 468.759 728.648 468.337V462.033ZM736.066 468.449V463.574H737.156V469.914H736.119L736.066 468.449ZM736.271 467.113L736.723 467.101C736.723 467.523 736.678 467.914 736.588 468.273C736.502 468.628 736.361 468.937 736.166 469.199C735.971 469.461 735.715 469.666 735.398 469.814C735.082 469.959 734.697 470.031 734.244 470.031C733.936 470.031 733.652 469.986 733.394 469.896C733.141 469.806 732.922 469.668 732.738 469.48C732.555 469.293 732.412 469.048 732.311 468.748C732.213 468.447 732.164 468.086 732.164 467.664V463.574H733.248V467.675C733.248 467.961 733.279 468.197 733.342 468.384C733.408 468.568 733.496 468.714 733.605 468.824C733.719 468.929 733.844 469.003 733.98 469.046C734.121 469.089 734.266 469.111 734.414 469.111C734.875 469.111 735.24 469.023 735.51 468.847C735.779 468.668 735.973 468.427 736.09 468.127C736.211 467.822 736.271 467.484 736.271 467.113ZM739.893 464.57V469.914H738.809V463.574H739.863L739.893 464.57ZM741.873 463.539L741.867 464.546C741.777 464.527 741.691 464.515 741.609 464.511C741.531 464.503 741.441 464.5 741.34 464.5C741.09 464.5 740.869 464.539 740.678 464.617C740.486 464.695 740.324 464.804 740.191 464.945C740.059 465.086 739.953 465.253 739.875 465.449C739.801 465.64 739.752 465.851 739.728 466.082L739.424 466.257C739.424 465.875 739.461 465.515 739.535 465.179C739.613 464.843 739.732 464.546 739.893 464.289C740.053 464.027 740.256 463.824 740.502 463.679C740.752 463.531 741.049 463.457 741.393 463.457C741.471 463.457 741.561 463.466 741.662 463.486C741.764 463.502 741.834 463.519 741.873 463.539ZM723.234 482.683V474.914H724.324V483.914H723.328L723.234 482.683ZM718.969 480.814V480.691C718.969 480.207 719.027 479.767 719.144 479.373C719.266 478.974 719.436 478.632 719.654 478.347C719.877 478.062 720.141 477.843 720.445 477.691C720.754 477.535 721.098 477.457 721.477 477.457C721.875 477.457 722.223 477.527 722.519 477.668C722.82 477.804 723.074 478.005 723.281 478.271C723.492 478.533 723.658 478.849 723.779 479.22C723.9 479.591 723.984 480.011 724.031 480.48V481.019C723.988 481.484 723.904 481.902 723.779 482.273C723.658 482.644 723.492 482.961 723.281 483.222C723.074 483.484 722.82 483.685 722.519 483.826C722.219 483.962 721.867 484.031 721.465 484.031C721.094 484.031 720.754 483.951 720.445 483.791C720.141 483.63 719.877 483.406 719.654 483.117C719.436 482.828 719.266 482.488 719.144 482.097C719.027 481.703 718.969 481.275 718.969 480.814ZM720.059 480.691V480.814C720.059 481.13 720.09 481.427 720.152 481.705C720.219 481.982 720.32 482.226 720.457 482.437C720.594 482.648 720.768 482.814 720.978 482.935C721.189 483.052 721.441 483.111 721.734 483.111C722.094 483.111 722.389 483.035 722.619 482.882C722.853 482.73 723.041 482.529 723.182 482.279C723.322 482.029 723.432 481.757 723.51 481.464V480.052C723.463 479.837 723.394 479.63 723.305 479.431C723.219 479.228 723.105 479.048 722.965 478.892C722.828 478.732 722.658 478.605 722.455 478.511C722.256 478.418 722.019 478.371 721.746 478.371C721.449 478.371 721.193 478.433 720.978 478.558C720.768 478.679 720.594 478.847 720.457 479.062C720.32 479.273 720.219 479.519 720.152 479.8C720.09 480.078 720.059 480.375 720.059 480.691ZM729.75 482.83V479.566C729.75 479.316 729.699 479.099 729.598 478.916C729.5 478.728 729.352 478.584 729.152 478.482C728.953 478.38 728.707 478.33 728.414 478.33C728.141 478.33 727.9 478.377 727.693 478.47C727.49 478.564 727.33 478.687 727.213 478.839C727.1 478.992 727.043 479.156 727.043 479.332H725.959C725.959 479.105 726.018 478.88 726.135 478.658C726.252 478.435 726.42 478.234 726.639 478.054C726.861 477.871 727.127 477.726 727.436 477.621C727.748 477.511 728.096 477.457 728.478 477.457C728.939 477.457 729.346 477.535 729.697 477.691C730.053 477.847 730.33 478.084 730.529 478.4C730.732 478.712 730.834 479.105 730.834 479.578V482.531C730.834 482.742 730.852 482.966 730.887 483.205C730.926 483.443 730.982 483.648 731.057 483.82V483.914H729.926C729.871 483.789 729.828 483.623 729.797 483.416C729.766 483.205 729.75 483.009 729.75 482.83ZM729.937 480.07L729.949 480.832H728.853C728.545 480.832 728.269 480.857 728.027 480.908C727.785 480.955 727.582 481.027 727.418 481.125C727.254 481.222 727.129 481.345 727.043 481.494C726.957 481.638 726.914 481.808 726.914 482.003C726.914 482.203 726.959 482.384 727.049 482.548C727.139 482.712 727.273 482.843 727.453 482.941C727.637 483.035 727.861 483.082 728.127 483.082C728.459 483.082 728.752 483.011 729.006 482.871C729.26 482.73 729.461 482.558 729.609 482.355C729.762 482.152 729.844 481.955 729.855 481.763L730.318 482.285C730.291 482.449 730.217 482.63 730.096 482.83C729.975 483.029 729.812 483.22 729.609 483.404C729.41 483.584 729.172 483.734 728.894 483.855C728.621 483.972 728.312 484.031 727.969 484.031C727.539 484.031 727.162 483.947 726.838 483.779C726.518 483.611 726.268 483.386 726.088 483.105C725.912 482.82 725.824 482.502 725.824 482.15C725.824 481.81 725.891 481.511 726.023 481.253C726.156 480.992 726.348 480.775 726.598 480.603C726.848 480.427 727.148 480.294 727.5 480.205C727.852 480.115 728.244 480.07 728.678 480.07H729.937ZM734.227 483.257L735.99 477.574H737.15L734.607 484.892C734.549 485.048 734.471 485.216 734.373 485.396C734.279 485.58 734.158 485.753 734.01 485.918C733.861 486.082 733.682 486.214 733.471 486.316C733.264 486.421 733.016 486.474 732.727 486.474C732.641 486.474 732.531 486.462 732.398 486.439C732.266 486.416 732.172 486.396 732.117 486.38L732.111 485.502C732.143 485.505 732.191 485.509 732.258 485.513C732.328 485.521 732.377 485.525 732.404 485.525C732.65 485.525 732.859 485.492 733.031 485.425C733.203 485.363 733.348 485.255 733.465 485.103C733.586 484.955 733.689 484.75 733.775 484.488L734.227 483.257ZM732.932 477.574L734.578 482.496L734.859 483.638L734.08 484.037L731.748 477.574H732.932Z" fill="#333333"/>
<path d="M862.821 467.757C862.821 467.558 862.79 467.382 862.727 467.23C862.669 467.074 862.563 466.933 862.411 466.808C862.262 466.683 862.055 466.564 861.79 466.451C861.528 466.337 861.196 466.222 860.794 466.105C860.372 465.98 859.991 465.841 859.651 465.689C859.311 465.533 859.02 465.355 858.778 465.156C858.536 464.957 858.35 464.728 858.221 464.47C858.092 464.212 858.028 463.918 858.028 463.586C858.028 463.253 858.096 462.947 858.233 462.666C858.37 462.384 858.565 462.14 858.819 461.933C859.077 461.722 859.384 461.558 859.739 461.441C860.094 461.324 860.491 461.265 860.928 461.265C861.569 461.265 862.112 461.388 862.557 461.634C863.007 461.877 863.348 462.195 863.583 462.589C863.817 462.98 863.934 463.398 863.934 463.843H862.809C862.809 463.523 862.741 463.24 862.604 462.994C862.467 462.744 862.26 462.548 861.983 462.408C861.706 462.263 861.354 462.191 860.928 462.191C860.526 462.191 860.194 462.252 859.932 462.373C859.671 462.494 859.475 462.658 859.346 462.865C859.221 463.072 859.159 463.308 859.159 463.574C859.159 463.753 859.196 463.918 859.27 464.066C859.348 464.211 859.467 464.345 859.628 464.47C859.792 464.595 859.999 464.711 860.249 464.816C860.503 464.921 860.805 465.023 861.157 465.121C861.641 465.257 862.059 465.41 862.411 465.578C862.762 465.746 863.051 465.935 863.278 466.146C863.509 466.353 863.678 466.589 863.788 466.855C863.901 467.117 863.958 467.414 863.958 467.746C863.958 468.093 863.887 468.408 863.747 468.689C863.606 468.97 863.405 469.211 863.143 469.41C862.882 469.609 862.567 469.763 862.2 469.873C861.837 469.978 861.43 470.031 860.981 470.031C860.587 470.031 860.198 469.976 859.815 469.867C859.436 469.757 859.091 469.593 858.778 469.375C858.469 469.156 858.221 468.886 858.034 468.566C857.85 468.242 857.759 467.867 857.759 467.441H858.884C858.884 467.734 858.94 467.986 859.053 468.197C859.167 468.404 859.321 468.576 859.516 468.712C859.716 468.849 859.94 468.951 860.19 469.017C860.444 469.08 860.708 469.111 860.981 469.111C861.376 469.111 861.71 469.056 861.983 468.947C862.257 468.837 862.464 468.681 862.604 468.478C862.749 468.275 862.821 468.035 862.821 467.757ZM869.114 468.449V463.574H870.204V469.914H869.167L869.114 468.449ZM869.319 467.113L869.77 467.101C869.77 467.523 869.725 467.914 869.635 468.273C869.55 468.628 869.409 468.937 869.214 469.199C869.018 469.461 868.762 469.666 868.446 469.814C868.13 469.959 867.745 470.031 867.292 470.031C866.983 470.031 866.7 469.986 866.442 469.896C866.188 469.806 865.969 469.668 865.786 469.48C865.602 469.293 865.46 469.048 865.358 468.748C865.26 468.447 865.212 468.086 865.212 467.664V463.574H866.296V467.675C866.296 467.961 866.327 468.197 866.389 468.384C866.456 468.568 866.544 468.714 866.653 468.824C866.766 468.929 866.891 469.003 867.028 469.046C867.169 469.089 867.313 469.111 867.462 469.111C867.923 469.111 868.288 469.023 868.557 468.847C868.827 468.668 869.02 468.427 869.137 468.127C869.259 467.822 869.319 467.484 869.319 467.113ZM872.94 464.927V469.914H871.856V463.574H872.882L872.94 464.927ZM872.682 466.503L872.231 466.486C872.235 466.052 872.3 465.652 872.425 465.285C872.55 464.914 872.725 464.591 872.952 464.318C873.178 464.044 873.448 463.834 873.76 463.685C874.077 463.533 874.426 463.457 874.809 463.457C875.122 463.457 875.403 463.5 875.653 463.586C875.903 463.668 876.116 463.8 876.292 463.984C876.471 464.168 876.608 464.406 876.702 464.699C876.796 464.988 876.842 465.341 876.842 465.759V469.914H875.753V465.748C875.753 465.416 875.704 465.15 875.606 464.951C875.509 464.748 875.366 464.601 875.178 464.511C874.991 464.418 874.76 464.371 874.487 464.371C874.217 464.371 873.971 464.427 873.749 464.541C873.53 464.654 873.341 464.81 873.18 465.009C873.024 465.209 872.901 465.437 872.811 465.695C872.725 465.949 872.682 466.218 872.682 466.503ZM862.85 482.683V474.914H863.94V483.914H862.944L862.85 482.683ZM858.585 480.814V480.691C858.585 480.207 858.643 479.767 858.76 479.373C858.882 478.974 859.051 478.632 859.27 478.347C859.493 478.062 859.757 477.843 860.061 477.691C860.37 477.535 860.714 477.457 861.092 477.457C861.491 477.457 861.839 477.527 862.135 477.668C862.436 477.804 862.69 478.005 862.897 478.271C863.108 478.533 863.274 478.849 863.395 479.22C863.516 479.591 863.6 480.011 863.647 480.48V481.019C863.604 481.484 863.52 481.902 863.395 482.273C863.274 482.644 863.108 482.961 862.897 483.222C862.69 483.484 862.436 483.685 862.135 483.826C861.835 483.962 861.483 484.031 861.081 484.031C860.71 484.031 860.37 483.951 860.061 483.791C859.757 483.63 859.493 483.406 859.27 483.117C859.051 482.828 858.882 482.488 858.76 482.097C858.643 481.703 858.585 481.275 858.585 480.814ZM859.675 480.691V480.814C859.675 481.13 859.706 481.427 859.768 481.705C859.835 481.982 859.936 482.226 860.073 482.437C860.21 482.648 860.384 482.814 860.594 482.935C860.805 483.052 861.057 483.111 861.35 483.111C861.71 483.111 862.005 483.035 862.235 482.882C862.469 482.73 862.657 482.529 862.798 482.279C862.938 482.029 863.048 481.757 863.126 481.464V480.052C863.079 479.837 863.01 479.63 862.921 479.431C862.835 479.228 862.721 479.048 862.581 478.892C862.444 478.732 862.274 478.605 862.071 478.511C861.872 478.418 861.635 478.371 861.362 478.371C861.065 478.371 860.809 478.433 860.594 478.558C860.384 478.679 860.21 478.847 860.073 479.062C859.936 479.273 859.835 479.519 859.768 479.8C859.706 480.078 859.675 480.375 859.675 480.691ZM869.366 482.83V479.566C869.366 479.316 869.315 479.099 869.214 478.916C869.116 478.728 868.967 478.584 868.768 478.482C868.569 478.38 868.323 478.33 868.03 478.33C867.757 478.33 867.516 478.377 867.309 478.47C867.106 478.564 866.946 478.687 866.829 478.839C866.716 478.992 866.659 479.156 866.659 479.332H865.575C865.575 479.105 865.634 478.88 865.751 478.658C865.868 478.435 866.036 478.234 866.255 478.054C866.477 477.871 866.743 477.726 867.051 477.621C867.364 477.511 867.712 477.457 868.094 477.457C868.555 477.457 868.962 477.535 869.313 477.691C869.669 477.847 869.946 478.084 870.145 478.4C870.348 478.712 870.45 479.105 870.45 479.578V482.531C870.45 482.742 870.467 482.966 870.503 483.205C870.542 483.443 870.598 483.648 870.673 483.82V483.914H869.542C869.487 483.789 869.444 483.623 869.413 483.416C869.382 483.205 869.366 483.009 869.366 482.83ZM869.553 480.07L869.565 480.832H868.469C868.161 480.832 867.885 480.857 867.643 480.908C867.401 480.955 867.198 481.027 867.034 481.125C866.87 481.222 866.745 481.345 866.659 481.494C866.573 481.638 866.53 481.808 866.53 482.003C866.53 482.203 866.575 482.384 866.665 482.548C866.755 482.712 866.889 482.843 867.069 482.941C867.253 483.035 867.477 483.082 867.743 483.082C868.075 483.082 868.368 483.011 868.622 482.871C868.876 482.73 869.077 482.558 869.225 482.355C869.378 482.152 869.46 481.955 869.471 481.763L869.934 482.285C869.907 482.449 869.833 482.63 869.712 482.83C869.591 483.029 869.428 483.22 869.225 483.404C869.026 483.584 868.788 483.734 868.51 483.855C868.237 483.972 867.928 484.031 867.585 484.031C867.155 484.031 866.778 483.947 866.454 483.779C866.134 483.611 865.884 483.386 865.704 483.105C865.528 482.82 865.44 482.502 865.44 482.15C865.44 481.81 865.507 481.511 865.639 481.253C865.772 480.992 865.964 480.775 866.214 480.603C866.464 480.427 866.764 480.294 867.116 480.205C867.467 480.115 867.86 480.07 868.294 480.07H869.553ZM873.842 483.257L875.606 477.574H876.766L874.223 484.892C874.165 485.048 874.087 485.216 873.989 485.396C873.895 485.58 873.774 485.753 873.626 485.918C873.477 486.082 873.298 486.214 873.087 486.316C872.88 486.421 872.632 486.474 872.342 486.474C872.257 486.474 872.147 486.462 872.014 486.439C871.882 486.416 871.788 486.396 871.733 486.38L871.727 485.502C871.759 485.505 871.807 485.509 871.874 485.513C871.944 485.521 871.993 485.525 872.02 485.525C872.266 485.525 872.475 485.492 872.647 485.425C872.819 485.363 872.964 485.255 873.081 485.103C873.202 484.955 873.305 484.75 873.391 484.488L873.842 483.257ZM872.548 477.574L874.194 482.496L874.475 483.638L873.696 484.037L871.364 477.574H872.548Z" fill="#333333"/>
<path opacity="0.2" fill-rule="evenodd" clip-rule="evenodd" d="M30.2664 422.129L170.538 205.361L309.498 237.424L449.114 145.072L588.73 375.953L727.562 237.633L867.961 191.248V468.305H30.2664V422.129Z" fill="#0E9CFF"/>
<path d="M30.2664 422.129L169.529 204.872L309.498 237.424L449.114 145.072L588.73 375.953L725.544 237.424L867.961 191.248" stroke="#08489C" stroke-width="2" stroke-linejoin="round"/>
<path d="M30.2664 425.466C32.1252 425.466 33.7072 424.013 33.7072 422.129C33.7072 420.246 32.1252 418.792 30.2664 418.792C28.4075 418.792 26.8255 420.246 26.8255 422.129C26.8255 424.013 28.4075 425.466 30.2664 425.466Z" fill="white" stroke="#0E9CFF" stroke-width="2"/>
<path d="M170.961 208.101C172.82 208.101 174.402 206.648 174.402 204.765C174.402 202.881 172.82 201.428 170.961 201.428C169.102 201.428 167.52 202.881 167.52 204.765C167.52 206.648 169.102 208.101 170.961 208.101Z" fill="white" stroke="#0E9CFF" stroke-width="2"/>
<path d="M309.498 240.761C311.357 240.761 312.939 239.308 312.939 237.424C312.939 235.541 311.357 234.087 309.498 234.087C307.639 234.087 306.057 235.541 306.057 237.424C306.057 239.308 307.639 240.761 309.498 240.761Z" fill="white" stroke="#0E9CFF" stroke-width="2"/>
<path d="M449.114 148.409C450.973 148.409 452.555 146.955 452.555 145.072C452.555 143.188 450.973 141.735 449.114 141.735C447.255 141.735 445.673 143.188 445.673 145.072C445.673 146.955 447.255 148.409 449.114 148.409Z" fill="white" stroke="#0E9CFF" stroke-width="2"/>
<path d="M588.73 379.29C590.589 379.29 592.171 377.836 592.171 375.953C592.171 374.069 590.589 372.616 588.73 372.616C586.871 372.616 585.289 374.069 585.289 375.953C585.289 377.836 586.871 379.29 588.73 379.29Z" fill="white" stroke="#0E9CFF" stroke-width="2"/>
<path d="M727.985 238.417C729.844 238.417 731.425 236.963 731.425 235.08C731.425 233.196 729.844 231.743 727.985 231.743C726.126 231.743 724.544 233.196 724.544 235.08C724.544 236.963 726.126 238.417 727.985 238.417Z" fill="white" stroke="#0E9CFF" stroke-width="2"/>
<path d="M867.962 194.585C869.82 194.585 871.402 193.131 871.402 191.248C871.402 189.365 869.82 187.911 867.962 187.911C866.103 187.911 864.521 189.365 864.521 191.248C864.521 193.131 866.103 194.585 867.962 194.585Z" fill="white" stroke="#0E9CFF" stroke-width="2"/>
</svg>
