<svg width="30" height="30" viewBox="0 0 30 30" fill="none" xmlns="http://www.w3.org/2000/svg">
<circle cx="15" cy="15" r="15" fill="white"/>
<path d="M15 3C8.37097 3 3 8.20312 3 14.625C3 21.0469 8.37097 26.25 15 26.25C21.629 26.25 27 21.0469 27 14.625C27 8.20312 21.629 3 15 3ZM20.8839 17.6766C21.1113 17.8969 21.1113 18.2531 20.8839 18.4734L18.9677 20.325C18.7403 20.5453 18.3726 20.5453 18.1452 20.325L15 17.25L11.85 20.325C11.6226 20.5453 11.2548 20.5453 11.0274 20.325L9.11613 18.4688C8.88871 18.2484 8.88871 17.8922 9.11613 17.6719L12.2903 14.625L9.11613 11.5734C8.88871 11.3531 8.88871 10.9969 9.11613 10.7766L11.0323 8.92031C11.2597 8.7 11.6274 8.7 11.8548 8.92031L15 12L18.15 8.925C18.3774 8.70469 18.7452 8.70469 18.9726 8.925L20.8887 10.7812C21.1161 11.0016 21.1161 11.3578 20.8887 11.5781L17.7097 14.625L20.8839 17.6766Z" fill="black"/>
</svg>
