<svg width="401" height="286" viewBox="0 0 401 286" fill="none" xmlns="http://www.w3.org/2000/svg">
<rect width="400.924" height="286" rx="10" fill="#E0E0E0" fill-opacity="0.8"/>
<path d="M83.3631 187V178.273H86.4739C87.1529 178.273 87.7154 178.396 88.1614 178.643C88.6074 178.891 88.9412 179.229 89.1628 179.658C89.3844 180.084 89.4952 180.564 89.4952 181.098C89.4952 181.635 89.383 182.118 89.1586 182.547C88.937 182.973 88.6017 183.311 88.1529 183.561C87.7069 183.808 87.1458 183.932 86.4696 183.932H84.3304V182.815H86.3503C86.7793 182.815 87.1273 182.741 87.3944 182.594C87.6614 182.443 87.8574 182.239 87.9824 181.98C88.1074 181.722 88.1699 181.428 88.1699 181.098C88.1699 180.768 88.1074 180.476 87.9824 180.22C87.8574 179.964 87.66 179.764 87.3901 179.619C87.123 179.474 86.7708 179.402 86.3333 179.402H84.6799V187H83.3631ZM98.0829 178.273V187H96.8727L92.4366 180.599H92.3556V187H91.0389V178.273H92.2576L96.698 184.682H96.7789V178.273H98.0829ZM105.91 181.03C105.828 180.771 105.717 180.54 105.578 180.335C105.441 180.128 105.278 179.952 105.088 179.807C104.897 179.659 104.68 179.547 104.436 179.47C104.194 179.393 103.928 179.355 103.639 179.355C103.147 179.355 102.704 179.482 102.309 179.734C101.914 179.987 101.602 180.358 101.372 180.847C101.144 181.332 101.031 181.928 101.031 182.632C101.031 183.339 101.146 183.937 101.376 184.426C101.606 184.915 101.921 185.286 102.322 185.538C102.722 185.791 103.178 185.918 103.69 185.918C104.164 185.918 104.578 185.821 104.93 185.628C105.285 185.435 105.559 185.162 105.752 184.81C105.948 184.455 106.046 184.037 106.046 183.557L106.387 183.621H103.89V182.534H107.32V183.527C107.32 184.26 107.164 184.896 106.852 185.436C106.542 185.973 106.113 186.388 105.565 186.68C105.019 186.973 104.394 187.119 103.69 187.119C102.9 187.119 102.207 186.938 101.61 186.574C101.017 186.21 100.553 185.695 100.221 185.027C99.8887 184.357 99.7225 183.561 99.7225 182.641C99.7225 181.945 99.8191 181.32 100.012 180.766C100.205 180.212 100.477 179.741 100.826 179.355C101.178 178.966 101.592 178.669 102.066 178.464C102.544 178.257 103.065 178.153 103.63 178.153C104.102 178.153 104.541 178.223 104.947 178.362C105.356 178.501 105.72 178.699 106.038 178.955C106.359 179.21 106.624 179.514 106.835 179.866C107.045 180.216 107.187 180.604 107.261 181.03H105.91ZM110.547 185.807L110.483 186.271C110.441 186.612 110.368 186.967 110.266 187.337C110.167 187.709 110.063 188.054 109.955 188.372C109.85 188.69 109.763 188.943 109.695 189.131H108.792C108.829 188.955 108.88 188.716 108.945 188.415C109.01 188.116 109.074 187.783 109.137 187.413C109.199 187.044 109.246 186.668 109.278 186.284L109.32 185.807H110.547ZM118.876 178.273H120.189V184.46C120.189 185.02 120.078 185.499 119.856 185.896C119.638 186.294 119.329 186.598 118.932 186.808C118.534 187.016 118.068 187.119 117.534 187.119C117.042 187.119 116.601 187.03 116.209 186.851C115.819 186.672 115.511 186.412 115.284 186.071C115.059 185.727 114.947 185.31 114.947 184.818H116.256C116.256 185.06 116.311 185.268 116.422 185.445C116.535 185.621 116.69 185.759 116.886 185.858C117.085 185.955 117.312 186.003 117.568 186.003C117.846 186.003 118.082 185.945 118.275 185.828C118.471 185.709 118.621 185.534 118.723 185.304C118.825 185.074 118.876 184.793 118.876 184.46V178.273ZM122.105 187V178.273H125.216C125.895 178.273 126.458 178.396 126.904 178.643C127.35 178.891 127.683 179.229 127.905 179.658C128.127 180.084 128.237 180.564 128.237 181.098C128.237 181.635 128.125 182.118 127.901 182.547C127.679 182.973 127.344 183.311 126.895 183.561C126.449 183.808 125.888 183.932 125.212 183.932H123.073V182.815H125.093C125.521 182.815 125.869 182.741 126.137 182.594C126.404 182.443 126.6 182.239 126.725 181.98C126.85 181.722 126.912 181.428 126.912 181.098C126.912 180.768 126.85 180.476 126.725 180.22C126.6 179.964 126.402 179.764 126.132 179.619C125.865 179.474 125.513 179.402 125.075 179.402H123.422V187H122.105ZM135.687 181.03C135.605 180.771 135.494 180.54 135.355 180.335C135.219 180.128 135.055 179.952 134.865 179.807C134.675 179.659 134.457 179.547 134.213 179.47C133.971 179.393 133.706 179.355 133.416 179.355C132.925 179.355 132.481 179.482 132.086 179.734C131.692 179.987 131.379 180.358 131.149 180.847C130.922 181.332 130.808 181.928 130.808 182.632C130.808 183.339 130.923 183.937 131.153 184.426C131.383 184.915 131.699 185.286 132.099 185.538C132.5 185.791 132.956 185.918 133.467 185.918C133.942 185.918 134.355 185.821 134.707 185.628C135.062 185.435 135.336 185.162 135.53 184.81C135.726 184.455 135.824 184.037 135.824 183.557L136.165 183.621H133.667V182.534H137.098V183.527C137.098 184.26 136.942 184.896 136.629 185.436C136.319 185.973 135.89 186.388 135.342 186.68C134.797 186.973 134.172 187.119 133.467 187.119C132.677 187.119 131.984 186.938 131.388 186.574C130.794 186.21 130.331 185.695 129.998 185.027C129.666 184.357 129.5 183.561 129.5 182.641C129.5 181.945 129.596 181.32 129.79 180.766C129.983 180.212 130.254 179.741 130.604 179.355C130.956 178.966 131.369 178.669 131.844 178.464C132.321 178.257 132.842 178.153 133.407 178.153C133.879 178.153 134.318 178.223 134.724 178.362C135.133 178.501 135.497 178.699 135.815 178.955C136.136 179.21 136.402 179.514 136.612 179.866C136.822 180.216 136.964 180.604 137.038 181.03H135.687ZM142.214 182.636C142.214 181.568 142.354 180.585 142.635 179.688C142.917 178.79 143.327 177.962 143.867 177.203H145.035C144.824 177.484 144.628 177.83 144.447 178.239C144.265 178.648 144.106 179.097 143.969 179.585C143.833 180.071 143.726 180.575 143.65 181.098C143.573 181.618 143.535 182.131 143.535 182.636C143.535 183.312 143.601 183.997 143.735 184.69C143.868 185.384 144.049 186.027 144.276 186.621C144.503 187.214 144.756 187.699 145.035 188.074H143.867C143.327 187.315 142.917 186.487 142.635 185.589C142.354 184.692 142.214 183.707 142.214 182.636ZM146.48 178.273H148.078L150.857 185.057H150.959L153.737 178.273H155.335V187H154.083V180.685H154.002L151.428 186.987H150.388L147.814 180.68H147.733V187H146.48V178.273ZM159.052 187.145C158.638 187.145 158.263 187.068 157.927 186.915C157.592 186.759 157.327 186.533 157.131 186.237C156.937 185.942 156.841 185.58 156.841 185.151C156.841 184.781 156.912 184.477 157.054 184.239C157.196 184 157.388 183.811 157.629 183.672C157.871 183.533 158.14 183.428 158.439 183.357C158.737 183.286 159.041 183.232 159.351 183.195C159.743 183.149 160.061 183.112 160.305 183.084C160.55 183.053 160.727 183.003 160.838 182.935C160.949 182.866 161.004 182.756 161.004 182.602V182.572C161.004 182.2 160.899 181.912 160.689 181.707C160.481 181.503 160.172 181.401 159.76 181.401C159.331 181.401 158.993 181.496 158.746 181.686C158.501 181.874 158.332 182.082 158.238 182.312L157.041 182.04C157.183 181.642 157.39 181.321 157.663 181.077C157.939 180.83 158.256 180.651 158.613 180.54C158.971 180.426 159.348 180.369 159.743 180.369C160.004 180.369 160.281 180.401 160.574 180.463C160.869 180.523 161.145 180.634 161.4 180.795C161.659 180.957 161.871 181.189 162.035 181.49C162.2 181.788 162.282 182.176 162.282 182.653V187H161.038V186.105H160.987C160.905 186.27 160.781 186.432 160.616 186.591C160.452 186.75 160.24 186.882 159.981 186.987C159.723 187.092 159.413 187.145 159.052 187.145ZM159.329 186.122C159.682 186.122 159.983 186.053 160.233 185.913C160.486 185.774 160.677 185.592 160.808 185.368C160.942 185.141 161.008 184.898 161.008 184.639V183.795C160.963 183.841 160.875 183.884 160.744 183.923C160.616 183.96 160.47 183.993 160.305 184.021C160.14 184.047 159.98 184.071 159.824 184.094C159.667 184.114 159.537 184.131 159.432 184.145C159.184 184.176 158.959 184.229 158.754 184.303C158.552 184.376 158.39 184.483 158.268 184.622C158.149 184.759 158.089 184.94 158.089 185.168C158.089 185.483 158.206 185.722 158.439 185.884C158.672 186.043 158.969 186.122 159.329 186.122ZM164.985 180.455L166.43 183.003L167.887 180.455H169.281L167.24 183.727L169.298 187H167.904L166.43 184.554L164.96 187H163.562L165.599 183.727L163.588 180.455H164.985ZM178.67 182.053L177.515 182.257C177.466 182.109 177.39 181.969 177.285 181.835C177.182 181.702 177.043 181.592 176.867 181.507C176.691 181.422 176.471 181.379 176.206 181.379C175.846 181.379 175.545 181.46 175.303 181.622C175.062 181.781 174.941 181.987 174.941 182.24C174.941 182.459 175.022 182.635 175.184 182.768C175.346 182.902 175.607 183.011 175.968 183.097L177.008 183.335C177.61 183.474 178.059 183.689 178.354 183.979C178.65 184.268 178.797 184.645 178.797 185.108C178.797 185.5 178.684 185.849 178.456 186.156C178.232 186.46 177.918 186.699 177.515 186.872C177.114 187.045 176.65 187.132 176.121 187.132C175.388 187.132 174.79 186.976 174.327 186.663C173.864 186.348 173.58 185.901 173.475 185.321L174.706 185.134C174.783 185.455 174.941 185.697 175.18 185.862C175.418 186.024 175.729 186.105 176.113 186.105C176.53 186.105 176.864 186.018 177.114 185.845C177.364 185.669 177.489 185.455 177.489 185.202C177.489 184.997 177.412 184.825 177.259 184.686C177.108 184.547 176.877 184.442 176.564 184.371L175.456 184.128C174.846 183.989 174.394 183.767 174.101 183.463C173.812 183.159 173.667 182.774 173.667 182.308C173.667 181.922 173.775 181.584 173.991 181.294C174.206 181.004 174.505 180.778 174.885 180.616C175.266 180.452 175.702 180.369 176.194 180.369C176.901 180.369 177.458 180.523 177.864 180.83C178.27 181.134 178.539 181.541 178.67 182.053ZM180.198 187V180.455H181.472V187H180.198ZM180.842 179.445C180.62 179.445 180.43 179.371 180.271 179.223C180.115 179.072 180.036 178.893 180.036 178.686C180.036 178.476 180.115 178.297 180.271 178.149C180.43 177.999 180.62 177.923 180.842 177.923C181.063 177.923 181.252 177.999 181.409 178.149C181.568 178.297 181.647 178.476 181.647 178.686C181.647 178.893 181.568 179.072 181.409 179.223C181.252 179.371 181.063 179.445 180.842 179.445ZM183.05 187V186.126L186.596 181.622V181.562H183.165V180.455H188.185V181.384L184.776 185.832V185.892H188.305V187H183.05ZM192.441 187.132C191.796 187.132 191.241 186.994 190.775 186.719C190.312 186.44 189.954 186.05 189.701 185.547C189.451 185.041 189.326 184.449 189.326 183.77C189.326 183.099 189.451 182.509 189.701 181.997C189.954 181.486 190.306 181.087 190.758 180.8C191.213 180.513 191.744 180.369 192.352 180.369C192.721 180.369 193.079 180.43 193.426 180.553C193.772 180.675 194.083 180.866 194.359 181.128C194.634 181.389 194.852 181.729 195.011 182.146C195.17 182.561 195.249 183.065 195.249 183.659V184.111H190.046V183.156H194.001C194.001 182.821 193.933 182.524 193.796 182.266C193.66 182.004 193.468 181.798 193.221 181.648C192.977 181.497 192.69 181.422 192.36 181.422C192.002 181.422 191.69 181.51 191.423 181.686C191.159 181.859 190.954 182.087 190.809 182.368C190.667 182.646 190.596 182.949 190.596 183.276V184.021C190.596 184.459 190.673 184.831 190.826 185.138C190.982 185.445 191.2 185.679 191.478 185.841C191.757 186 192.082 186.08 192.454 186.08C192.695 186.08 192.916 186.045 193.115 185.977C193.313 185.906 193.485 185.801 193.63 185.662C193.775 185.523 193.886 185.351 193.963 185.146L195.169 185.364C195.072 185.719 194.899 186.03 194.649 186.297C194.401 186.561 194.09 186.767 193.715 186.915C193.343 187.06 192.919 187.132 192.441 187.132ZM197.503 187.081C197.27 187.081 197.069 186.999 196.902 186.834C196.734 186.666 196.65 186.464 196.65 186.229C196.65 185.996 196.734 185.797 196.902 185.632C197.069 185.464 197.27 185.381 197.503 185.381C197.736 185.381 197.936 185.464 198.104 185.632C198.271 185.797 198.355 185.996 198.355 186.229C198.355 186.385 198.315 186.528 198.236 186.659C198.159 186.787 198.057 186.889 197.929 186.966C197.801 187.043 197.659 187.081 197.503 187.081ZM197.503 182.317C197.27 182.317 197.069 182.233 196.902 182.065C196.734 181.898 196.65 181.697 196.65 181.464C196.65 181.232 196.734 181.033 196.902 180.868C197.069 180.7 197.27 180.616 197.503 180.616C197.736 180.616 197.936 180.7 198.104 180.868C198.271 181.033 198.355 181.232 198.355 181.464C198.355 181.621 198.315 181.764 198.236 181.895C198.159 182.023 198.057 182.125 197.929 182.202C197.801 182.278 197.659 182.317 197.503 182.317ZM203.22 187V186.045L206.173 182.986C206.489 182.653 206.749 182.362 206.953 182.112C207.161 181.859 207.316 181.619 207.418 181.392C207.52 181.165 207.571 180.923 207.571 180.668C207.571 180.378 207.503 180.128 207.367 179.918C207.23 179.705 207.044 179.541 206.808 179.428C206.573 179.311 206.307 179.253 206.012 179.253C205.699 179.253 205.426 179.317 205.193 179.445C204.96 179.572 204.781 179.753 204.656 179.986C204.531 180.219 204.469 180.491 204.469 180.804H203.212C203.212 180.273 203.334 179.808 203.578 179.411C203.823 179.013 204.158 178.705 204.584 178.486C205.01 178.264 205.494 178.153 206.037 178.153C206.585 178.153 207.068 178.263 207.486 178.482C207.906 178.697 208.235 178.993 208.47 179.368C208.706 179.74 208.824 180.161 208.824 180.629C208.824 180.953 208.763 181.27 208.641 181.58C208.521 181.889 208.313 182.234 208.014 182.615C207.716 182.993 207.301 183.452 206.77 183.991L205.036 185.807V185.871H208.965V187H203.22ZM213.875 178.273H215.473L218.251 185.057H218.354L221.132 178.273H222.73V187H221.477V180.685H221.396L218.822 186.987H217.782L215.209 180.68H215.128V187H213.875V178.273ZM224.644 187V178.273H227.84C228.46 178.273 228.972 178.375 229.379 178.58C229.785 178.781 230.089 179.055 230.291 179.402C230.492 179.746 230.593 180.134 230.593 180.565C230.593 180.929 230.526 181.236 230.393 181.486C230.259 181.733 230.08 181.932 229.856 182.082C229.634 182.23 229.39 182.338 229.123 182.406V182.491C229.413 182.506 229.695 182.599 229.971 182.773C230.249 182.943 230.48 183.186 230.661 183.501C230.843 183.817 230.934 184.2 230.934 184.652C230.934 185.098 230.829 185.499 230.619 185.854C230.411 186.206 230.09 186.486 229.656 186.693C229.221 186.898 228.666 187 227.99 187H224.644ZM225.961 185.871H227.862C228.492 185.871 228.944 185.749 229.217 185.504C229.49 185.26 229.626 184.955 229.626 184.588C229.626 184.312 229.556 184.06 229.417 183.83C229.278 183.599 229.079 183.416 228.82 183.28C228.565 183.143 228.261 183.075 227.909 183.075H225.961V185.871ZM225.961 182.048H227.725C228.021 182.048 228.286 181.991 228.522 181.878C228.761 181.764 228.95 181.605 229.089 181.401C229.231 181.193 229.302 180.949 229.302 180.668C229.302 180.307 229.176 180.004 228.923 179.76C228.67 179.516 228.282 179.393 227.759 179.393H225.961V182.048ZM234.051 185.807L233.987 186.271C233.945 186.612 233.872 186.967 233.77 187.337C233.671 187.709 233.567 188.054 233.459 188.372C233.354 188.69 233.267 188.943 233.199 189.131H232.296C232.333 188.955 232.384 188.716 232.449 188.415C232.514 188.116 232.578 187.783 232.641 187.413C232.703 187.044 232.75 186.668 232.781 186.284L232.824 185.807H234.051ZM238.988 178.273H240.586L243.365 185.057H243.467L246.245 178.273H247.843V187H246.59V180.685H246.509L243.936 186.987H242.896L240.322 180.68H240.241V187H238.988V178.273ZM251.56 187.145C251.145 187.145 250.77 187.068 250.435 186.915C250.1 186.759 249.834 186.533 249.638 186.237C249.445 185.942 249.349 185.58 249.349 185.151C249.349 184.781 249.42 184.477 249.562 184.239C249.704 184 249.895 183.811 250.137 183.672C250.378 183.533 250.648 183.428 250.947 183.357C251.245 183.286 251.549 183.232 251.858 183.195C252.251 183.149 252.569 183.112 252.813 183.084C253.057 183.053 253.235 183.003 253.346 182.935C253.456 182.866 253.512 182.756 253.512 182.602V182.572C253.512 182.2 253.407 181.912 253.197 181.707C252.989 181.503 252.68 181.401 252.268 181.401C251.839 181.401 251.501 181.496 251.253 181.686C251.009 181.874 250.84 182.082 250.746 182.312L249.549 182.04C249.691 181.642 249.898 181.321 250.171 181.077C250.447 180.83 250.763 180.651 251.121 180.54C251.479 180.426 251.856 180.369 252.251 180.369C252.512 180.369 252.789 180.401 253.081 180.463C253.377 180.523 253.653 180.634 253.908 180.795C254.167 180.957 254.378 181.189 254.543 181.49C254.708 181.788 254.79 182.176 254.79 182.653V187H253.546V186.105H253.495C253.412 186.27 253.289 186.432 253.124 186.591C252.959 186.75 252.748 186.882 252.489 186.987C252.231 187.092 251.921 187.145 251.56 187.145ZM251.837 186.122C252.189 186.122 252.491 186.053 252.741 185.913C252.993 185.774 253.185 185.592 253.316 185.368C253.449 185.141 253.516 184.898 253.516 184.639V183.795C253.471 183.841 253.383 183.884 253.252 183.923C253.124 183.96 252.978 183.993 252.813 184.021C252.648 184.047 252.488 184.071 252.331 184.094C252.175 184.114 252.045 184.131 251.939 184.145C251.692 184.176 251.466 184.229 251.262 184.303C251.06 184.376 250.898 184.483 250.776 184.622C250.657 184.759 250.597 184.94 250.597 185.168C250.597 185.483 250.714 185.722 250.947 185.884C251.18 186.043 251.476 186.122 251.837 186.122ZM257.493 180.455L258.938 183.003L260.395 180.455H261.789L259.747 183.727L261.806 187H260.412L258.938 184.554L257.468 187H256.07L258.107 183.727L256.095 180.455H257.493ZM267.692 178.273V187H266.375V178.273H267.692ZM269.507 187V180.455H270.73V181.52H270.811C270.947 181.159 271.17 180.878 271.48 180.676C271.79 180.472 272.16 180.369 272.592 180.369C273.03 180.369 273.396 180.472 273.692 180.676C273.99 180.881 274.21 181.162 274.352 181.52H274.42C274.577 181.17 274.825 180.892 275.166 180.685C275.507 180.474 275.913 180.369 276.385 180.369C276.979 180.369 277.463 180.555 277.838 180.928C278.216 181.3 278.405 181.861 278.405 182.611V187H277.131V182.73C277.131 182.287 277.01 181.966 276.768 181.767C276.527 181.568 276.238 181.469 275.903 181.469C275.488 181.469 275.166 181.597 274.936 181.852C274.706 182.105 274.591 182.43 274.591 182.828V187H273.321V182.649C273.321 182.294 273.21 182.009 272.988 181.793C272.767 181.577 272.479 181.469 272.123 181.469C271.882 181.469 271.659 181.533 271.454 181.661C271.253 181.786 271.089 181.96 270.964 182.185C270.842 182.409 270.781 182.669 270.781 182.964V187H269.507ZM282.017 187.145C281.602 187.145 281.227 187.068 280.892 186.915C280.557 186.759 280.291 186.533 280.095 186.237C279.902 185.942 279.806 185.58 279.806 185.151C279.806 184.781 279.877 184.477 280.019 184.239C280.161 184 280.352 183.811 280.594 183.672C280.835 183.533 281.105 183.428 281.404 183.357C281.702 183.286 282.006 183.232 282.316 183.195C282.708 183.149 283.026 183.112 283.27 183.084C283.514 183.053 283.692 183.003 283.803 182.935C283.914 182.866 283.969 182.756 283.969 182.602V182.572C283.969 182.2 283.864 181.912 283.654 181.707C283.446 181.503 283.137 181.401 282.725 181.401C282.296 181.401 281.958 181.496 281.71 181.686C281.466 181.874 281.297 182.082 281.203 182.312L280.006 182.04C280.148 181.642 280.355 181.321 280.628 181.077C280.904 180.83 281.22 180.651 281.578 180.54C281.936 180.426 282.313 180.369 282.708 180.369C282.969 180.369 283.246 180.401 283.539 180.463C283.834 180.523 284.11 180.634 284.365 180.795C284.624 180.957 284.835 181.189 285 181.49C285.165 181.788 285.247 182.176 285.247 182.653V187H284.003V186.105H283.952C283.869 186.27 283.746 186.432 283.581 186.591C283.416 186.75 283.205 186.882 282.946 186.987C282.688 187.092 282.378 187.145 282.017 187.145ZM282.294 186.122C282.646 186.122 282.948 186.053 283.198 185.913C283.45 185.774 283.642 185.592 283.773 185.368C283.906 185.141 283.973 184.898 283.973 184.639V183.795C283.928 183.841 283.84 183.884 283.709 183.923C283.581 183.96 283.435 183.993 283.27 184.021C283.105 184.047 282.945 184.071 282.789 184.094C282.632 184.114 282.502 184.131 282.396 184.145C282.149 184.176 281.923 184.229 281.719 184.303C281.517 184.376 281.355 184.483 281.233 184.622C281.114 184.759 281.054 184.94 281.054 185.168C281.054 185.483 281.171 185.722 281.404 185.884C281.637 186.043 281.933 186.122 282.294 186.122ZM289.689 189.591C289.169 189.591 288.721 189.523 288.346 189.386C287.974 189.25 287.67 189.07 287.434 188.845C287.199 188.621 287.023 188.375 286.906 188.108L288.001 187.656C288.078 187.781 288.18 187.913 288.308 188.053C288.439 188.195 288.615 188.315 288.836 188.415C289.061 188.514 289.349 188.564 289.702 188.564C290.184 188.564 290.584 188.446 290.899 188.21C291.214 187.977 291.372 187.605 291.372 187.094V185.807H291.291C291.214 185.946 291.104 186.101 290.959 186.271C290.817 186.442 290.621 186.589 290.371 186.714C290.121 186.839 289.795 186.902 289.395 186.902C288.878 186.902 288.412 186.781 287.997 186.54C287.585 186.295 287.258 185.936 287.017 185.462C286.778 184.984 286.659 184.398 286.659 183.702C286.659 183.006 286.777 182.409 287.013 181.912C287.251 181.415 287.578 181.034 287.993 180.77C288.407 180.503 288.878 180.369 289.403 180.369C289.809 180.369 290.138 180.438 290.388 180.574C290.638 180.707 290.832 180.864 290.971 181.043C291.113 181.222 291.223 181.379 291.3 181.516H291.393V180.455H292.642V187.145C292.642 187.707 292.511 188.169 292.25 188.53C291.988 188.891 291.635 189.158 291.189 189.331C290.746 189.504 290.246 189.591 289.689 189.591ZM289.676 185.845C290.042 185.845 290.352 185.76 290.605 185.589C290.861 185.416 291.054 185.169 291.184 184.848C291.318 184.524 291.385 184.136 291.385 183.685C291.385 183.244 291.319 182.857 291.189 182.521C291.058 182.186 290.866 181.925 290.613 181.737C290.361 181.547 290.048 181.452 289.676 181.452C289.292 181.452 288.973 181.551 288.717 181.75C288.461 181.946 288.268 182.213 288.138 182.551C288.01 182.889 287.946 183.267 287.946 183.685C287.946 184.114 288.011 184.49 288.142 184.814C288.273 185.138 288.466 185.391 288.721 185.572C288.98 185.754 289.298 185.845 289.676 185.845ZM297.172 187.132C296.527 187.132 295.971 186.994 295.506 186.719C295.042 186.44 294.684 186.05 294.432 185.547C294.182 185.041 294.057 184.449 294.057 183.77C294.057 183.099 294.182 182.509 294.432 181.997C294.684 181.486 295.037 181.087 295.488 180.8C295.943 180.513 296.474 180.369 297.082 180.369C297.452 180.369 297.809 180.43 298.156 180.553C298.503 180.675 298.814 180.866 299.089 181.128C299.365 181.389 299.582 181.729 299.741 182.146C299.9 182.561 299.98 183.065 299.98 183.659V184.111H294.777V183.156H298.731C298.731 182.821 298.663 182.524 298.527 182.266C298.39 182.004 298.199 181.798 297.952 181.648C297.707 181.497 297.42 181.422 297.091 181.422C296.733 181.422 296.42 181.51 296.153 181.686C295.889 181.859 295.684 182.087 295.54 182.368C295.398 182.646 295.327 182.949 295.327 183.276V184.021C295.327 184.459 295.403 184.831 295.557 185.138C295.713 185.445 295.93 185.679 296.209 185.841C296.487 186 296.812 186.08 297.184 186.08C297.426 186.08 297.646 186.045 297.845 185.977C298.044 185.906 298.216 185.801 298.361 185.662C298.506 185.523 298.616 185.351 298.693 185.146L299.899 185.364C299.802 185.719 299.629 186.03 299.379 186.297C299.132 186.561 298.821 186.767 298.446 186.915C298.074 187.06 297.649 187.132 297.172 187.132ZM302.233 187.081C302 187.081 301.8 186.999 301.632 186.834C301.465 186.666 301.381 186.464 301.381 186.229C301.381 185.996 301.465 185.797 301.632 185.632C301.8 185.464 302 185.381 302.233 185.381C302.466 185.381 302.666 185.464 302.834 185.632C303.002 185.797 303.085 185.996 303.085 186.229C303.085 186.385 303.046 186.528 302.966 186.659C302.889 186.787 302.787 186.889 302.659 186.966C302.531 187.043 302.389 187.081 302.233 187.081ZM302.233 182.317C302 182.317 301.8 182.233 301.632 182.065C301.465 181.898 301.381 181.697 301.381 181.464C301.381 181.232 301.465 181.033 301.632 180.868C301.8 180.7 302 180.616 302.233 180.616C302.466 180.616 302.666 180.7 302.834 180.868C303.002 181.033 303.085 181.232 303.085 181.464C303.085 181.621 303.046 181.764 302.966 181.895C302.889 182.023 302.787 182.125 302.659 182.202C302.531 182.278 302.389 182.317 302.233 182.317ZM308.245 187L312.055 179.466V179.402H307.648V178.273H313.418V179.44L309.621 187H308.245ZM317.367 182.636C317.367 183.707 317.227 184.692 316.945 185.589C316.664 186.487 316.254 187.315 315.714 188.074H314.546C314.757 187.793 314.953 187.447 315.134 187.038C315.316 186.629 315.475 186.182 315.612 185.696C315.748 185.207 315.855 184.702 315.931 184.179C316.008 183.656 316.046 183.142 316.046 182.636C316.046 181.963 315.98 181.28 315.846 180.587C315.713 179.893 315.532 179.25 315.305 178.656C315.078 178.062 314.825 177.578 314.546 177.203H315.714C316.254 177.962 316.664 178.79 316.945 179.688C317.227 180.585 317.367 181.568 317.367 182.636Z" fill="#10528F"/>
<path d="M137.331 154.217H135.737C135.692 153.956 135.608 153.724 135.486 153.523C135.364 153.318 135.212 153.145 135.03 153.003C134.848 152.861 134.641 152.754 134.408 152.683C134.178 152.609 133.929 152.572 133.662 152.572C133.188 152.572 132.767 152.692 132.401 152.93C132.034 153.166 131.747 153.513 131.54 153.97C131.332 154.425 131.229 154.98 131.229 155.636C131.229 156.304 131.332 156.866 131.54 157.324C131.75 157.778 132.037 158.122 132.401 158.355C132.767 158.585 133.186 158.7 133.658 158.7C133.919 158.7 134.163 158.666 134.391 158.598C134.621 158.527 134.827 158.423 135.009 158.287C135.193 158.151 135.348 157.983 135.473 157.784C135.601 157.585 135.689 157.358 135.737 157.102L137.331 157.111C137.271 157.526 137.142 157.915 136.943 158.278C136.747 158.642 136.49 158.963 136.172 159.241C135.854 159.517 135.482 159.733 135.055 159.889C134.629 160.043 134.156 160.119 133.636 160.119C132.869 160.119 132.185 159.942 131.582 159.587C130.98 159.232 130.506 158.719 130.159 158.048C129.813 157.378 129.639 156.574 129.639 155.636C129.639 154.696 129.814 153.892 130.163 153.224C130.513 152.554 130.989 152.041 131.591 151.686C132.193 151.331 132.875 151.153 133.636 151.153C134.122 151.153 134.574 151.222 134.991 151.358C135.409 151.494 135.781 151.695 136.108 151.959C136.435 152.22 136.703 152.541 136.913 152.922C137.126 153.3 137.266 153.732 137.331 154.217ZM140.253 151.273V160H138.711V151.273H140.253ZM141.839 160V153.455H143.382V160H141.839ZM142.615 152.526C142.371 152.526 142.161 152.445 141.984 152.283C141.808 152.118 141.72 151.92 141.72 151.69C141.72 151.457 141.808 151.26 141.984 151.098C142.161 150.933 142.371 150.851 142.615 150.851C142.862 150.851 143.072 150.933 143.246 151.098C143.422 151.26 143.51 151.457 143.51 151.69C143.51 151.92 143.422 152.118 143.246 152.283C143.072 152.445 142.862 152.526 142.615 152.526ZM147.824 160.128C147.17 160.128 146.609 159.984 146.14 159.697C145.674 159.411 145.315 159.014 145.062 158.509C144.812 158 144.687 157.415 144.687 156.753C144.687 156.088 144.815 155.501 145.071 154.993C145.326 154.482 145.687 154.084 146.153 153.8C146.622 153.513 147.176 153.369 147.815 153.369C148.346 153.369 148.816 153.467 149.225 153.663C149.637 153.857 149.966 154.131 150.21 154.486C150.454 154.838 150.593 155.25 150.627 155.722H149.153C149.093 155.406 148.951 155.143 148.727 154.933C148.505 154.72 148.208 154.614 147.836 154.614C147.521 154.614 147.244 154.699 147.005 154.869C146.767 155.037 146.581 155.278 146.447 155.594C146.316 155.909 146.251 156.287 146.251 156.727C146.251 157.173 146.316 157.557 146.447 157.878C146.578 158.196 146.761 158.442 146.997 158.615C147.235 158.786 147.515 158.871 147.836 158.871C148.064 158.871 148.267 158.828 148.446 158.743C148.627 158.655 148.779 158.528 148.902 158.364C149.024 158.199 149.108 157.999 149.153 157.763H150.627C150.591 158.226 150.454 158.636 150.218 158.994C149.983 159.349 149.662 159.628 149.255 159.83C148.849 160.028 148.372 160.128 147.824 160.128ZM153.3 157.946L153.296 156.084H153.543L155.896 153.455H157.698L154.805 156.676H154.485L153.3 157.946ZM151.894 160V151.273H153.437V160H151.894ZM156.002 160L153.871 157.021L154.911 155.935L157.847 160H156.002ZM164.971 153.455V154.648H161.208V153.455H164.971ZM162.137 151.886H163.68V158.031C163.68 158.239 163.711 158.398 163.774 158.509C163.839 158.616 163.924 158.69 164.029 158.73C164.135 158.77 164.251 158.79 164.379 158.79C164.475 158.79 164.564 158.783 164.643 158.768C164.725 158.754 164.788 158.741 164.831 158.73L165.091 159.936C165.008 159.964 164.89 159.996 164.737 160.03C164.586 160.064 164.402 160.084 164.183 160.089C163.797 160.101 163.449 160.043 163.139 159.915C162.829 159.784 162.583 159.582 162.402 159.31C162.223 159.037 162.135 158.696 162.137 158.287V151.886ZM169.046 160.128C168.407 160.128 167.853 159.987 167.384 159.706C166.915 159.425 166.552 159.031 166.293 158.526C166.038 158.02 165.91 157.429 165.91 156.753C165.91 156.077 166.038 155.484 166.293 154.976C166.552 154.467 166.915 154.072 167.384 153.791C167.853 153.51 168.407 153.369 169.046 153.369C169.685 153.369 170.239 153.51 170.708 153.791C171.177 154.072 171.539 154.467 171.795 154.976C172.053 155.484 172.183 156.077 172.183 156.753C172.183 157.429 172.053 158.02 171.795 158.526C171.539 159.031 171.177 159.425 170.708 159.706C170.239 159.987 169.685 160.128 169.046 160.128ZM169.055 158.892C169.401 158.892 169.691 158.797 169.924 158.607C170.157 158.413 170.33 158.155 170.444 157.831C170.56 157.507 170.619 157.146 170.619 156.749C170.619 156.348 170.56 155.986 170.444 155.662C170.33 155.335 170.157 155.075 169.924 154.882C169.691 154.689 169.401 154.592 169.055 154.592C168.7 154.592 168.404 154.689 168.168 154.882C167.935 155.075 167.761 155.335 167.644 155.662C167.531 155.986 167.474 156.348 167.474 156.749C167.474 157.146 167.531 157.507 167.644 157.831C167.761 158.155 167.935 158.413 168.168 158.607C168.404 158.797 168.7 158.892 169.055 158.892ZM180.64 157.247V153.455H182.183V160H180.687V158.837H180.619C180.471 159.203 180.228 159.503 179.89 159.736C179.555 159.969 179.142 160.085 178.65 160.085C178.221 160.085 177.842 159.99 177.512 159.8C177.186 159.607 176.93 159.327 176.745 158.96C176.561 158.591 176.468 158.145 176.468 157.622V153.455H178.011V157.384C178.011 157.798 178.125 158.128 178.352 158.372C178.579 158.616 178.877 158.739 179.247 158.739C179.474 158.739 179.694 158.683 179.907 158.572C180.12 158.462 180.295 158.297 180.431 158.078C180.571 157.857 180.64 157.58 180.64 157.247ZM183.769 162.455V153.455H185.286V154.537H185.376C185.455 154.378 185.567 154.209 185.712 154.03C185.857 153.848 186.053 153.693 186.3 153.565C186.548 153.435 186.863 153.369 187.246 153.369C187.752 153.369 188.208 153.499 188.614 153.757C189.023 154.013 189.347 154.392 189.586 154.895C189.827 155.395 189.948 156.009 189.948 156.736C189.948 157.455 189.83 158.065 189.594 158.568C189.359 159.071 189.038 159.455 188.631 159.719C188.225 159.983 187.765 160.115 187.251 160.115C186.876 160.115 186.565 160.053 186.317 159.928C186.07 159.803 185.871 159.652 185.721 159.476C185.573 159.297 185.458 159.128 185.376 158.969H185.312V162.455H183.769ZM185.282 156.727C185.282 157.151 185.342 157.521 185.461 157.839C185.583 158.158 185.758 158.406 185.985 158.585C186.215 158.761 186.494 158.849 186.82 158.849C187.161 158.849 187.447 158.759 187.677 158.577C187.907 158.392 188.08 158.141 188.197 157.822C188.316 157.501 188.376 157.136 188.376 156.727C188.376 156.321 188.317 155.96 188.201 155.645C188.085 155.33 187.911 155.082 187.681 154.903C187.451 154.724 187.164 154.635 186.82 154.635C186.491 154.635 186.211 154.722 185.981 154.895C185.751 155.068 185.576 155.311 185.457 155.624C185.34 155.936 185.282 156.304 185.282 156.727ZM192.812 151.273V160H191.269V151.273H192.812ZM197.253 160.128C196.614 160.128 196.06 159.987 195.591 159.706C195.123 159.425 194.759 159.031 194.5 158.526C194.245 158.02 194.117 157.429 194.117 156.753C194.117 156.077 194.245 155.484 194.5 154.976C194.759 154.467 195.123 154.072 195.591 153.791C196.06 153.51 196.614 153.369 197.253 153.369C197.892 153.369 198.446 153.51 198.915 153.791C199.384 154.072 199.746 154.467 200.002 154.976C200.26 155.484 200.39 156.077 200.39 156.753C200.39 157.429 200.26 158.02 200.002 158.526C199.746 159.031 199.384 159.425 198.915 159.706C198.446 159.987 197.892 160.128 197.253 160.128ZM197.262 158.892C197.608 158.892 197.898 158.797 198.131 158.607C198.364 158.413 198.537 158.155 198.651 157.831C198.767 157.507 198.826 157.146 198.826 156.749C198.826 156.348 198.767 155.986 198.651 155.662C198.537 155.335 198.364 155.075 198.131 154.882C197.898 154.689 197.608 154.592 197.262 154.592C196.907 154.592 196.611 154.689 196.375 154.882C196.142 155.075 195.968 155.335 195.851 155.662C195.738 155.986 195.681 156.348 195.681 156.749C195.681 157.146 195.738 157.507 195.851 157.831C195.968 158.155 196.142 158.413 196.375 158.607C196.611 158.797 196.907 158.892 197.262 158.892ZM203.582 160.132C203.168 160.132 202.794 160.058 202.462 159.911C202.132 159.76 201.871 159.538 201.678 159.246C201.487 158.953 201.392 158.592 201.392 158.163C201.392 157.794 201.46 157.489 201.597 157.247C201.733 157.006 201.919 156.812 202.155 156.668C202.391 156.523 202.656 156.413 202.952 156.339C203.25 156.263 203.558 156.207 203.876 156.173C204.26 156.134 204.571 156.098 204.81 156.067C205.048 156.033 205.222 155.982 205.33 155.913C205.44 155.842 205.496 155.733 205.496 155.585V155.56C205.496 155.239 205.401 154.99 205.21 154.814C205.02 154.638 204.746 154.55 204.388 154.55C204.01 154.55 203.71 154.632 203.489 154.797C203.27 154.962 203.122 155.156 203.045 155.381L201.605 155.176C201.719 154.778 201.906 154.446 202.168 154.179C202.429 153.909 202.749 153.707 203.126 153.574C203.504 153.438 203.922 153.369 204.379 153.369C204.695 153.369 205.009 153.406 205.321 153.48C205.634 153.554 205.919 153.676 206.178 153.847C206.436 154.014 206.643 154.243 206.8 154.533C206.959 154.822 207.038 155.185 207.038 155.619V160H205.555V159.101H205.504C205.411 159.283 205.278 159.453 205.108 159.612C204.94 159.768 204.729 159.895 204.473 159.991C204.22 160.085 203.923 160.132 203.582 160.132ZM203.983 158.999C204.293 158.999 204.561 158.937 204.788 158.815C205.016 158.69 205.19 158.526 205.312 158.321C205.438 158.116 205.5 157.893 205.5 157.652V156.881C205.452 156.92 205.369 156.957 205.253 156.991C205.139 157.026 205.011 157.055 204.869 157.081C204.727 157.107 204.587 157.129 204.447 157.149C204.308 157.169 204.188 157.186 204.085 157.2C203.855 157.232 203.649 157.283 203.467 157.354C203.286 157.425 203.142 157.524 203.037 157.652C202.932 157.777 202.879 157.939 202.879 158.138C202.879 158.422 202.983 158.636 203.19 158.781C203.398 158.926 203.662 158.999 203.983 158.999ZM211.018 160.115C210.504 160.115 210.044 159.983 209.638 159.719C209.232 159.455 208.911 159.071 208.675 158.568C208.439 158.065 208.321 157.455 208.321 156.736C208.321 156.009 208.44 155.395 208.679 154.895C208.92 154.392 209.246 154.013 209.655 153.757C210.064 153.499 210.52 153.369 211.023 153.369C211.406 153.369 211.722 153.435 211.969 153.565C212.216 153.693 212.412 153.848 212.557 154.03C212.702 154.209 212.814 154.378 212.893 154.537H212.957V151.273H214.504V160H212.987V158.969H212.893C212.814 159.128 212.699 159.297 212.548 159.476C212.398 159.652 212.199 159.803 211.952 159.928C211.705 160.053 211.393 160.115 211.018 160.115ZM211.449 158.849C211.776 158.849 212.054 158.761 212.284 158.585C212.514 158.406 212.689 158.158 212.808 157.839C212.928 157.521 212.987 157.151 212.987 156.727C212.987 156.304 212.928 155.936 212.808 155.624C212.692 155.311 212.518 155.068 212.288 154.895C212.061 154.722 211.781 154.635 211.449 154.635C211.105 154.635 210.818 154.724 210.588 154.903C210.358 155.082 210.185 155.33 210.068 155.645C209.952 155.96 209.893 156.321 209.893 156.727C209.893 157.136 209.952 157.501 210.068 157.822C210.188 158.141 210.362 158.392 210.592 158.577C210.825 158.759 211.111 158.849 211.449 158.849ZM221.577 160.153C221.162 160.153 220.786 160.075 220.448 159.919C220.11 159.76 219.841 159.531 219.642 159.233C219.444 158.932 219.344 158.568 219.344 158.142C219.344 157.767 219.418 157.463 219.566 157.23C219.713 156.994 219.911 156.81 220.158 156.676C220.405 156.543 220.678 156.443 220.976 156.378C221.277 156.31 221.58 156.256 221.884 156.216C222.282 156.165 222.604 156.126 222.851 156.101C223.101 156.072 223.283 156.026 223.397 155.96C223.513 155.895 223.571 155.781 223.571 155.619V155.585C223.571 155.165 223.456 154.838 223.226 154.605C222.999 154.372 222.654 154.256 222.191 154.256C221.711 154.256 221.334 154.361 221.061 154.571C220.789 154.781 220.597 155.006 220.486 155.244L219.532 154.903C219.702 154.506 219.929 154.196 220.213 153.974C220.5 153.75 220.813 153.594 221.151 153.506C221.492 153.415 221.827 153.369 222.157 153.369C222.367 153.369 222.608 153.395 222.881 153.446C223.157 153.494 223.422 153.595 223.678 153.749C223.936 153.902 224.151 154.134 224.321 154.443C224.492 154.753 224.577 155.168 224.577 155.688V160H223.571V159.114H223.52C223.452 159.256 223.338 159.408 223.179 159.57C223.02 159.732 222.809 159.869 222.544 159.983C222.28 160.097 221.958 160.153 221.577 160.153ZM221.73 159.25C222.128 159.25 222.463 159.172 222.736 159.016C223.012 158.859 223.219 158.658 223.358 158.411C223.5 158.163 223.571 157.903 223.571 157.631V156.71C223.529 156.761 223.435 156.808 223.29 156.851C223.148 156.891 222.983 156.926 222.796 156.957C222.611 156.986 222.431 157.011 222.255 157.034C222.081 157.054 221.941 157.071 221.833 157.085C221.571 157.119 221.327 157.175 221.1 157.251C220.875 157.325 220.694 157.437 220.554 157.588C220.418 157.736 220.35 157.937 220.35 158.193C220.35 158.543 220.479 158.807 220.738 158.986C220.999 159.162 221.33 159.25 221.73 159.25ZM227.418 156.062V160H226.413V153.455H227.384V154.477H227.469C227.623 154.145 227.856 153.878 228.168 153.676C228.481 153.472 228.884 153.369 229.379 153.369C229.822 153.369 230.21 153.46 230.542 153.642C230.874 153.821 231.133 154.094 231.317 154.46C231.502 154.824 231.594 155.284 231.594 155.841V160H230.589V155.909C230.589 155.395 230.455 154.994 230.188 154.707C229.921 154.418 229.555 154.273 229.089 154.273C228.768 154.273 228.481 154.342 228.228 154.482C227.978 154.621 227.781 154.824 227.636 155.091C227.491 155.358 227.418 155.682 227.418 156.062ZM236.807 160V153.455H237.813V160H236.807ZM237.319 152.364C237.123 152.364 236.953 152.297 236.811 152.163C236.672 152.03 236.603 151.869 236.603 151.682C236.603 151.494 236.672 151.334 236.811 151.2C236.953 151.067 237.123 151 237.319 151C237.515 151 237.682 151.067 237.821 151.2C237.963 151.334 238.034 151.494 238.034 151.682C238.034 151.869 237.963 152.03 237.821 152.163C237.682 152.297 237.515 152.364 237.319 152.364ZM239.655 160V153.455H240.626V154.477H240.712C240.848 154.128 241.068 153.857 241.372 153.663C241.676 153.467 242.041 153.369 242.467 153.369C242.899 153.369 243.259 153.467 243.545 153.663C243.835 153.857 244.061 154.128 244.223 154.477H244.291C244.459 154.139 244.71 153.871 245.045 153.672C245.381 153.47 245.783 153.369 246.251 153.369C246.837 153.369 247.315 153.553 247.688 153.919C248.06 154.283 248.246 154.849 248.246 155.619V160H247.24V155.619C247.24 155.136 247.108 154.791 246.844 154.584C246.58 154.376 246.268 154.273 245.911 154.273C245.45 154.273 245.094 154.412 244.841 154.69C244.588 154.966 244.462 155.315 244.462 155.739V160H243.439V155.517C243.439 155.145 243.318 154.845 243.077 154.618C242.835 154.388 242.524 154.273 242.143 154.273C241.882 154.273 241.638 154.342 241.411 154.482C241.186 154.621 241.004 154.814 240.865 155.061C240.729 155.305 240.661 155.588 240.661 155.909V160H239.655ZM252.011 160.153C251.596 160.153 251.219 160.075 250.881 159.919C250.543 159.76 250.275 159.531 250.076 159.233C249.877 158.932 249.778 158.568 249.778 158.142C249.778 157.767 249.852 157.463 249.999 157.23C250.147 156.994 250.344 156.81 250.592 156.676C250.839 156.543 251.112 156.443 251.41 156.378C251.711 156.31 252.013 156.256 252.317 156.216C252.715 156.165 253.038 156.126 253.285 156.101C253.535 156.072 253.717 156.026 253.83 155.96C253.947 155.895 254.005 155.781 254.005 155.619V155.585C254.005 155.165 253.89 154.838 253.66 154.605C253.433 154.372 253.087 154.256 252.624 154.256C252.144 154.256 251.768 154.361 251.495 154.571C251.222 154.781 251.031 155.006 250.92 155.244L249.965 154.903C250.136 154.506 250.363 154.196 250.647 153.974C250.934 153.75 251.246 153.594 251.585 153.506C251.925 153.415 252.261 153.369 252.59 153.369C252.8 153.369 253.042 153.395 253.315 153.446C253.59 153.494 253.856 153.595 254.112 153.749C254.37 153.902 254.585 154.134 254.755 154.443C254.925 154.753 255.011 155.168 255.011 155.688V160H254.005V159.114H253.954C253.886 159.256 253.772 159.408 253.613 159.57C253.454 159.732 253.242 159.869 252.978 159.983C252.714 160.097 252.391 160.153 252.011 160.153ZM252.164 159.25C252.562 159.25 252.897 159.172 253.17 159.016C253.445 158.859 253.653 158.658 253.792 158.411C253.934 158.163 254.005 157.903 254.005 157.631V156.71C253.962 156.761 253.869 156.808 253.724 156.851C253.582 156.891 253.417 156.926 253.229 156.957C253.045 156.986 252.864 157.011 252.688 157.034C252.515 157.054 252.374 157.071 252.266 157.085C252.005 157.119 251.761 157.175 251.533 157.251C251.309 157.325 251.127 157.437 250.988 157.588C250.852 157.736 250.783 157.937 250.783 158.193C250.783 158.543 250.913 158.807 251.171 158.986C251.433 159.162 251.763 159.25 252.164 159.25ZM259.488 162.591C259.002 162.591 258.585 162.528 258.235 162.403C257.886 162.281 257.595 162.119 257.362 161.918C257.132 161.719 256.949 161.506 256.812 161.278L257.613 160.716C257.704 160.835 257.819 160.972 257.958 161.125C258.098 161.281 258.288 161.416 258.529 161.53C258.774 161.646 259.093 161.705 259.488 161.705C260.017 161.705 260.453 161.577 260.797 161.321C261.14 161.065 261.312 160.665 261.312 160.119V158.79H261.227C261.153 158.909 261.048 159.057 260.912 159.233C260.778 159.406 260.585 159.561 260.332 159.697C260.082 159.831 259.744 159.898 259.318 159.898C258.789 159.898 258.315 159.773 257.895 159.523C257.477 159.273 257.146 158.909 256.902 158.432C256.66 157.955 256.539 157.375 256.539 156.693C256.539 156.023 256.657 155.439 256.893 154.942C257.129 154.442 257.457 154.055 257.877 153.783C258.298 153.507 258.784 153.369 259.335 153.369C259.761 153.369 260.099 153.44 260.349 153.582C260.602 153.722 260.795 153.881 260.929 154.06C261.065 154.236 261.17 154.381 261.244 154.494H261.346V153.455H262.318V160.188C262.318 160.75 262.19 161.207 261.934 161.56C261.681 161.915 261.341 162.175 260.912 162.339C260.485 162.507 260.011 162.591 259.488 162.591ZM259.454 158.994C259.858 158.994 260.199 158.902 260.477 158.717C260.755 158.533 260.967 158.267 261.112 157.92C261.257 157.574 261.329 157.159 261.329 156.676C261.329 156.205 261.258 155.788 261.116 155.428C260.974 155.067 260.764 154.784 260.485 154.58C260.207 154.375 259.863 154.273 259.454 154.273C259.028 154.273 258.673 154.381 258.389 154.597C258.108 154.812 257.896 155.102 257.754 155.466C257.615 155.83 257.545 156.233 257.545 156.676C257.545 157.131 257.616 157.533 257.758 157.882C257.903 158.229 258.116 158.501 258.397 158.7C258.681 158.896 259.034 158.994 259.454 158.994ZM266.903 160.136C266.272 160.136 265.728 159.997 265.271 159.719C264.816 159.438 264.466 159.045 264.218 158.543C263.974 158.037 263.852 157.449 263.852 156.778C263.852 156.108 263.974 155.517 264.218 155.006C264.466 154.491 264.809 154.091 265.25 153.804C265.693 153.514 266.21 153.369 266.801 153.369C267.142 153.369 267.478 153.426 267.811 153.54C268.143 153.653 268.446 153.838 268.718 154.094C268.991 154.347 269.208 154.682 269.37 155.099C269.532 155.517 269.613 156.031 269.613 156.642V157.068H264.568V156.199H268.591C268.591 155.83 268.517 155.5 268.369 155.21C268.224 154.92 268.017 154.692 267.747 154.524C267.48 154.357 267.164 154.273 266.801 154.273C266.4 154.273 266.054 154.372 265.761 154.571C265.471 154.767 265.248 155.023 265.092 155.338C264.936 155.653 264.858 155.991 264.858 156.352V156.932C264.858 157.426 264.943 157.845 265.113 158.189C265.287 158.53 265.527 158.79 265.833 158.969C266.14 159.145 266.497 159.233 266.903 159.233C267.167 159.233 267.406 159.196 267.619 159.122C267.835 159.045 268.021 158.932 268.177 158.781C268.333 158.628 268.454 158.437 268.539 158.21L269.511 158.483C269.409 158.812 269.237 159.102 268.995 159.352C268.754 159.599 268.456 159.793 268.1 159.932C267.745 160.068 267.346 160.136 266.903 160.136Z" fill="#10528F"/>
<path d="M203.868 121.042H198.243C197.307 121.042 196.555 120.372 196.555 119.539V109.021H190.389C189.137 109.021 188.511 107.675 189.397 106.886L200.092 97.3568C200.619 96.8872 201.484 96.8872 202.011 97.3568L212.713 106.886C213.599 107.675 212.973 109.021 211.721 109.021H205.555V119.539C205.555 120.372 204.803 121.042 203.868 121.042ZM219.055 120.541V127.553C219.055 128.386 218.303 129.056 217.368 129.056H184.743C183.807 129.056 183.055 128.386 183.055 127.553V120.541C183.055 119.708 183.807 119.038 184.743 119.038H194.305V119.539C194.305 121.474 196.07 123.045 198.243 123.045H203.868C206.04 123.045 207.805 121.474 207.805 119.539V119.038H217.368C218.303 119.038 219.055 119.708 219.055 120.541ZM210.336 126.051C210.336 125.362 209.703 124.798 208.93 124.798C208.157 124.798 207.524 125.362 207.524 126.051C207.524 126.739 208.157 127.303 208.93 127.303C209.703 127.303 210.336 126.739 210.336 126.051ZM214.836 126.051C214.836 125.362 214.203 124.798 213.43 124.798C212.657 124.798 212.024 125.362 212.024 126.051C212.024 126.739 212.657 127.303 213.43 127.303C214.203 127.303 214.836 126.739 214.836 126.051Z" fill="#10528F"/>
</svg>
