<svg width="401" height="286" viewBox="0 0 401 286" fill="none" xmlns="http://www.w3.org/2000/svg">
<rect width="400.924" height="286" rx="10" fill="#E0E0E0" fill-opacity="0.8"/>
<path d="M124.125 187V178.273H127.236C127.915 178.273 128.477 178.396 128.923 178.643C129.369 178.891 129.703 179.229 129.925 179.658C130.146 180.084 130.257 180.564 130.257 181.098C130.257 181.635 130.145 182.118 129.92 182.547C129.699 182.973 129.363 183.311 128.915 183.561C128.469 183.808 127.907 183.932 127.231 183.932H125.092V182.815H127.112C127.541 182.815 127.889 182.741 128.156 182.594C128.423 182.443 128.619 182.239 128.744 181.98C128.869 181.722 128.932 181.428 128.932 181.098C128.932 180.768 128.869 180.476 128.744 180.22C128.619 179.964 128.422 179.764 128.152 179.619C127.885 179.474 127.532 179.402 127.095 179.402H125.442V187H124.125ZM138.845 178.273V187H137.634L133.198 180.599H133.117V187H131.801V178.273H133.019L137.46 184.682H137.541V178.273H138.845ZM146.672 181.03C146.589 180.771 146.479 180.54 146.339 180.335C146.203 180.128 146.04 179.952 145.849 179.807C145.659 179.659 145.442 179.547 145.197 179.47C144.956 179.393 144.69 179.355 144.4 179.355C143.909 179.355 143.466 179.482 143.071 179.734C142.676 179.987 142.363 180.358 142.133 180.847C141.906 181.332 141.792 181.928 141.792 182.632C141.792 183.339 141.907 183.937 142.138 184.426C142.368 184.915 142.683 185.286 143.084 185.538C143.484 185.791 143.94 185.918 144.452 185.918C144.926 185.918 145.339 185.821 145.692 185.628C146.047 185.435 146.321 185.162 146.514 184.81C146.71 184.455 146.808 184.037 146.808 183.557L147.149 183.621H144.652V182.534H148.082V183.527C148.082 184.26 147.926 184.896 147.613 185.436C147.304 185.973 146.875 186.388 146.327 186.68C145.781 186.973 145.156 187.119 144.452 187.119C143.662 187.119 142.969 186.938 142.372 186.574C141.778 186.21 141.315 185.695 140.983 185.027C140.65 184.357 140.484 183.561 140.484 182.641C140.484 181.945 140.581 181.32 140.774 180.766C140.967 180.212 141.238 179.741 141.588 179.355C141.94 178.966 142.354 178.669 142.828 178.464C143.305 178.257 143.827 178.153 144.392 178.153C144.863 178.153 145.302 178.223 145.709 178.362C146.118 178.501 146.481 178.699 146.8 178.955C147.121 179.21 147.386 179.514 147.596 179.866C147.807 180.216 147.949 180.604 148.023 181.03H146.672ZM151.309 185.807L151.245 186.271C151.203 186.612 151.13 186.967 151.028 187.337C150.928 187.709 150.825 188.054 150.717 188.372C150.612 188.69 150.525 188.943 150.457 189.131H149.553C149.59 188.955 149.642 188.716 149.707 188.415C149.772 188.116 149.836 187.783 149.899 187.413C149.961 187.044 150.008 186.668 150.039 186.284L150.082 185.807H151.309ZM159.638 178.273H160.95V184.46C160.95 185.02 160.84 185.499 160.618 185.896C160.399 186.294 160.091 186.598 159.693 186.808C159.296 187.016 158.83 187.119 158.296 187.119C157.804 187.119 157.362 187.03 156.97 186.851C156.581 186.672 156.273 186.412 156.046 186.071C155.821 185.727 155.709 185.31 155.709 184.818H157.017C157.017 185.06 157.073 185.268 157.183 185.445C157.297 185.621 157.452 185.759 157.648 185.858C157.847 185.955 158.074 186.003 158.33 186.003C158.608 186.003 158.844 185.945 159.037 185.828C159.233 185.709 159.382 185.534 159.485 185.304C159.587 185.074 159.638 184.793 159.638 184.46V178.273ZM162.867 187V178.273H165.978C166.657 178.273 167.219 178.396 167.665 178.643C168.111 178.891 168.445 179.229 168.667 179.658C168.888 180.084 168.999 180.564 168.999 181.098C168.999 181.635 168.887 182.118 168.662 182.547C168.441 182.973 168.106 183.311 167.657 183.561C167.211 183.808 166.65 183.932 165.974 183.932H163.834V182.815H165.854C166.283 182.815 166.631 182.741 166.898 182.594C167.165 182.443 167.361 182.239 167.486 181.98C167.611 181.722 167.674 181.428 167.674 181.098C167.674 180.768 167.611 180.476 167.486 180.22C167.361 179.964 167.164 179.764 166.894 179.619C166.627 179.474 166.275 179.402 165.837 179.402H164.184V187H162.867ZM176.449 181.03C176.367 180.771 176.256 180.54 176.117 180.335C175.98 180.128 175.817 179.952 175.627 179.807C175.436 179.659 175.219 179.547 174.975 179.47C174.733 179.393 174.468 179.355 174.178 179.355C173.686 179.355 173.243 179.482 172.848 179.734C172.453 179.987 172.141 180.358 171.911 180.847C171.683 181.332 171.57 181.928 171.57 182.632C171.57 183.339 171.685 183.937 171.915 184.426C172.145 184.915 172.46 185.286 172.861 185.538C173.262 185.791 173.718 185.918 174.229 185.918C174.703 185.918 175.117 185.821 175.469 185.628C175.824 185.435 176.098 185.162 176.291 184.81C176.487 184.455 176.585 184.037 176.585 183.557L176.926 183.621H174.429V182.534H177.86V183.527C177.86 184.26 177.703 184.896 177.391 185.436C177.081 185.973 176.652 186.388 176.104 186.68C175.558 186.973 174.933 187.119 174.229 187.119C173.439 187.119 172.746 186.938 172.149 186.574C171.556 186.21 171.093 185.695 170.76 185.027C170.428 184.357 170.262 183.561 170.262 182.641C170.262 181.945 170.358 181.32 170.551 180.766C170.744 180.212 171.016 179.741 171.365 179.355C171.718 178.966 172.131 178.669 172.605 178.464C173.083 178.257 173.604 178.153 174.169 178.153C174.641 178.153 175.08 178.223 175.486 178.362C175.895 178.501 176.259 178.699 176.577 178.955C176.898 179.21 177.164 179.514 177.374 179.866C177.584 180.216 177.726 180.604 177.8 181.03H176.449ZM182.975 182.636C182.975 181.568 183.116 180.585 183.397 179.688C183.678 178.79 184.089 177.962 184.629 177.203H185.796C185.586 177.484 185.39 177.83 185.208 178.239C185.026 178.648 184.867 179.097 184.731 179.585C184.595 180.071 184.488 180.575 184.411 181.098C184.335 181.618 184.296 182.131 184.296 182.636C184.296 183.312 184.363 183.997 184.497 184.69C184.63 185.384 184.811 186.027 185.038 186.621C185.265 187.214 185.518 187.699 185.796 188.074H184.629C184.089 187.315 183.678 186.487 183.397 185.589C183.116 184.692 182.975 183.707 182.975 182.636ZM187.242 178.273H188.84L191.618 185.057H191.721L194.499 178.273H196.097V187H194.844V180.685H194.763L192.189 186.987H191.15L188.576 180.68H188.495V187H187.242V178.273ZM199.814 187.145C199.399 187.145 199.024 187.068 198.689 186.915C198.354 186.759 198.088 186.533 197.892 186.237C197.699 185.942 197.602 185.58 197.602 185.151C197.602 184.781 197.673 184.477 197.816 184.239C197.958 184 198.149 183.811 198.391 183.672C198.632 183.533 198.902 183.428 199.2 183.357C199.499 183.286 199.803 183.232 200.112 183.195C200.504 183.149 200.823 183.112 201.067 183.084C201.311 183.053 201.489 183.003 201.6 182.935C201.71 182.866 201.766 182.756 201.766 182.602V182.572C201.766 182.2 201.661 181.912 201.45 181.707C201.243 181.503 200.933 181.401 200.521 181.401C200.093 181.401 199.754 181.496 199.507 181.686C199.263 181.874 199.094 182.082 199 182.312L197.803 182.04C197.945 181.642 198.152 181.321 198.425 181.077C198.7 180.83 199.017 180.651 199.375 180.54C199.733 180.426 200.11 180.369 200.504 180.369C200.766 180.369 201.043 180.401 201.335 180.463C201.631 180.523 201.906 180.634 202.162 180.795C202.421 180.957 202.632 181.189 202.797 181.49C202.962 181.788 203.044 182.176 203.044 182.653V187H201.8V186.105H201.749C201.666 186.27 201.543 186.432 201.378 186.591C201.213 186.75 201.002 186.882 200.743 186.987C200.485 187.092 200.175 187.145 199.814 187.145ZM200.091 186.122C200.443 186.122 200.744 186.053 200.994 185.913C201.247 185.774 201.439 185.592 201.57 185.368C201.703 185.141 201.77 184.898 201.77 184.639V183.795C201.725 183.841 201.637 183.884 201.506 183.923C201.378 183.96 201.232 183.993 201.067 184.021C200.902 184.047 200.742 184.071 200.585 184.094C200.429 184.114 200.298 184.131 200.193 184.145C199.946 184.176 199.72 184.229 199.516 184.303C199.314 184.376 199.152 184.483 199.03 184.622C198.911 184.759 198.851 184.94 198.851 185.168C198.851 185.483 198.968 185.722 199.2 185.884C199.433 186.043 199.73 186.122 200.091 186.122ZM205.747 180.455L207.192 183.003L208.649 180.455H210.042L208.001 183.727L210.059 187H208.666L207.192 184.554L205.721 187H204.324L206.361 183.727L204.349 180.455H205.747ZM219.431 182.053L218.276 182.257C218.228 182.109 218.151 181.969 218.046 181.835C217.944 181.702 217.805 181.592 217.629 181.507C217.453 181.422 217.232 181.379 216.968 181.379C216.607 181.379 216.306 181.46 216.065 181.622C215.823 181.781 215.703 181.987 215.703 182.24C215.703 182.459 215.784 182.635 215.945 182.768C216.107 182.902 216.369 183.011 216.73 183.097L217.769 183.335C218.372 183.474 218.82 183.689 219.116 183.979C219.411 184.268 219.559 184.645 219.559 185.108C219.559 185.5 219.445 185.849 219.218 186.156C218.994 186.46 218.68 186.699 218.276 186.872C217.876 187.045 217.411 187.132 216.883 187.132C216.15 187.132 215.552 186.976 215.089 186.663C214.626 186.348 214.342 185.901 214.237 185.321L215.468 185.134C215.545 185.455 215.703 185.697 215.941 185.862C216.18 186.024 216.491 186.105 216.874 186.105C217.292 186.105 217.626 186.018 217.876 185.845C218.126 185.669 218.251 185.455 218.251 185.202C218.251 184.997 218.174 184.825 218.021 184.686C217.87 184.547 217.639 184.442 217.326 184.371L216.218 184.128C215.607 183.989 215.156 183.767 214.863 183.463C214.573 183.159 214.428 182.774 214.428 182.308C214.428 181.922 214.536 181.584 214.752 181.294C214.968 181.004 215.267 180.778 215.647 180.616C216.028 180.452 216.464 180.369 216.955 180.369C217.663 180.369 218.22 180.523 218.626 180.83C219.032 181.134 219.301 181.541 219.431 182.053ZM220.96 187V180.455H222.234V187H220.96ZM221.604 179.445C221.382 179.445 221.192 179.371 221.032 179.223C220.876 179.072 220.798 178.893 220.798 178.686C220.798 178.476 220.876 178.297 221.032 178.149C221.192 177.999 221.382 177.923 221.604 177.923C221.825 177.923 222.014 177.999 222.17 178.149C222.329 178.297 222.409 178.476 222.409 178.686C222.409 178.893 222.329 179.072 222.17 179.223C222.014 179.371 221.825 179.445 221.604 179.445ZM223.812 187V186.126L227.357 181.622V181.562H223.927V180.455H228.947V181.384L225.538 185.832V185.892H229.066V187H223.812ZM233.203 187.132C232.558 187.132 232.003 186.994 231.537 186.719C231.074 186.44 230.716 186.05 230.463 185.547C230.213 185.041 230.088 184.449 230.088 183.77C230.088 183.099 230.213 182.509 230.463 181.997C230.716 181.486 231.068 181.087 231.52 180.8C231.974 180.513 232.506 180.369 233.113 180.369C233.483 180.369 233.841 180.43 234.187 180.553C234.534 180.675 234.845 180.866 235.121 181.128C235.396 181.389 235.613 181.729 235.773 182.146C235.932 182.561 236.011 183.065 236.011 183.659V184.111H230.808V183.156H234.763C234.763 182.821 234.694 182.524 234.558 182.266C234.422 182.004 234.23 181.798 233.983 181.648C233.738 181.497 233.452 181.422 233.122 181.422C232.764 181.422 232.452 181.51 232.184 181.686C231.92 181.859 231.716 182.087 231.571 182.368C231.429 182.646 231.358 182.949 231.358 183.276V184.021C231.358 184.459 231.434 184.831 231.588 185.138C231.744 185.445 231.961 185.679 232.24 185.841C232.518 186 232.844 186.08 233.216 186.08C233.457 186.08 233.677 186.045 233.876 185.977C234.075 185.906 234.247 185.801 234.392 185.662C234.537 185.523 234.648 185.351 234.724 185.146L235.93 185.364C235.834 185.719 235.66 186.03 235.41 186.297C235.163 186.561 234.852 186.767 234.477 186.915C234.105 187.06 233.68 187.132 233.203 187.132ZM238.264 187.081C238.031 187.081 237.831 186.999 237.664 186.834C237.496 186.666 237.412 186.464 237.412 186.229C237.412 185.996 237.496 185.797 237.664 185.632C237.831 185.464 238.031 185.381 238.264 185.381C238.497 185.381 238.698 185.464 238.865 185.632C239.033 185.797 239.117 185.996 239.117 186.229C239.117 186.385 239.077 186.528 238.997 186.659C238.921 186.787 238.818 186.889 238.691 186.966C238.563 187.043 238.421 187.081 238.264 187.081ZM238.264 182.317C238.031 182.317 237.831 182.233 237.664 182.065C237.496 181.898 237.412 181.697 237.412 181.464C237.412 181.232 237.496 181.033 237.664 180.868C237.831 180.7 238.031 180.616 238.264 180.616C238.497 180.616 238.698 180.7 238.865 180.868C239.033 181.033 239.117 181.232 239.117 181.464C239.117 181.621 239.077 181.764 238.997 181.895C238.921 182.023 238.818 182.125 238.691 182.202C238.563 182.278 238.421 182.317 238.264 182.317ZM243.982 187V186.045L246.935 182.986C247.251 182.653 247.51 182.362 247.715 182.112C247.922 181.859 248.077 181.619 248.18 181.392C248.282 181.165 248.333 180.923 248.333 180.668C248.333 180.378 248.265 180.128 248.128 179.918C247.992 179.705 247.806 179.541 247.57 179.428C247.334 179.311 247.069 179.253 246.773 179.253C246.461 179.253 246.188 179.317 245.955 179.445C245.722 179.572 245.543 179.753 245.418 179.986C245.293 180.219 245.231 180.491 245.231 180.804H243.974C243.974 180.273 244.096 179.808 244.34 179.411C244.584 179.013 244.92 178.705 245.346 178.486C245.772 178.264 246.256 178.153 246.799 178.153C247.347 178.153 247.83 178.263 248.248 178.482C248.668 178.697 248.996 178.993 249.232 179.368C249.468 179.74 249.586 180.161 249.586 180.629C249.586 180.953 249.525 181.27 249.403 181.58C249.283 181.889 249.074 182.234 248.776 182.615C248.478 182.993 248.063 183.452 247.532 183.991L245.797 185.807V185.871H249.726V187H243.982ZM254.637 178.273H256.235L259.013 185.057H259.115L261.894 178.273H263.492V187H262.239V180.685H262.158L259.584 186.987H258.544L255.97 180.68H255.889V187H254.637V178.273ZM265.406 187V178.273H268.602C269.221 178.273 269.734 178.375 270.14 178.58C270.547 178.781 270.851 179.055 271.052 179.402C271.254 179.746 271.355 180.134 271.355 180.565C271.355 180.929 271.288 181.236 271.155 181.486C271.021 181.733 270.842 181.932 270.618 182.082C270.396 182.23 270.152 182.338 269.885 182.406V182.491C270.175 182.506 270.457 182.599 270.733 182.773C271.011 182.943 271.241 183.186 271.423 183.501C271.605 183.817 271.696 184.2 271.696 184.652C271.696 185.098 271.591 185.499 271.381 185.854C271.173 186.206 270.852 186.486 270.417 186.693C269.983 186.898 269.427 187 268.751 187H265.406ZM266.723 185.871H268.623C269.254 185.871 269.706 185.749 269.979 185.504C270.251 185.26 270.388 184.955 270.388 184.588C270.388 184.312 270.318 184.06 270.179 183.83C270.04 183.599 269.841 183.416 269.582 183.28C269.327 183.143 269.023 183.075 268.67 183.075H266.723V185.871ZM266.723 182.048H268.487C268.782 182.048 269.048 181.991 269.284 181.878C269.523 181.764 269.711 181.605 269.851 181.401C269.993 181.193 270.064 180.949 270.064 180.668C270.064 180.307 269.937 180.004 269.684 179.76C269.432 179.516 269.044 179.393 268.521 179.393H266.723V182.048ZM275.606 182.636C275.606 183.707 275.465 184.692 275.184 185.589C274.903 186.487 274.492 187.315 273.952 188.074H272.785C272.995 187.793 273.191 187.447 273.373 187.038C273.555 186.629 273.714 186.182 273.85 185.696C273.986 185.207 274.093 184.702 274.17 184.179C274.246 183.656 274.285 183.142 274.285 182.636C274.285 181.963 274.218 181.28 274.084 180.587C273.951 179.893 273.77 179.25 273.543 178.656C273.316 178.062 273.063 177.578 272.785 177.203H273.952C274.492 177.962 274.903 178.79 275.184 179.688C275.465 180.585 275.606 181.568 275.606 182.636Z" fill="#10528F"/>
<path d="M137.331 154.217H135.737C135.692 153.956 135.608 153.724 135.486 153.523C135.364 153.318 135.212 153.145 135.03 153.003C134.848 152.861 134.641 152.754 134.408 152.683C134.178 152.609 133.929 152.572 133.662 152.572C133.188 152.572 132.767 152.692 132.401 152.93C132.034 153.166 131.747 153.513 131.54 153.97C131.332 154.425 131.229 154.98 131.229 155.636C131.229 156.304 131.332 156.866 131.54 157.324C131.75 157.778 132.037 158.122 132.401 158.355C132.767 158.585 133.186 158.7 133.658 158.7C133.919 158.7 134.163 158.666 134.391 158.598C134.621 158.527 134.827 158.423 135.009 158.287C135.193 158.151 135.348 157.983 135.473 157.784C135.601 157.585 135.689 157.358 135.737 157.102L137.331 157.111C137.271 157.526 137.142 157.915 136.943 158.278C136.747 158.642 136.49 158.963 136.172 159.241C135.854 159.517 135.482 159.733 135.055 159.889C134.629 160.043 134.156 160.119 133.636 160.119C132.869 160.119 132.185 159.942 131.582 159.587C130.98 159.232 130.506 158.719 130.159 158.048C129.813 157.378 129.639 156.574 129.639 155.636C129.639 154.696 129.814 153.892 130.163 153.224C130.513 152.554 130.989 152.041 131.591 151.686C132.193 151.331 132.875 151.153 133.636 151.153C134.122 151.153 134.574 151.222 134.991 151.358C135.409 151.494 135.781 151.695 136.108 151.959C136.435 152.22 136.703 152.541 136.913 152.922C137.126 153.3 137.266 153.732 137.331 154.217ZM140.253 151.273V160H138.711V151.273H140.253ZM141.839 160V153.455H143.382V160H141.839ZM142.615 152.526C142.371 152.526 142.161 152.445 141.984 152.283C141.808 152.118 141.72 151.92 141.72 151.69C141.72 151.457 141.808 151.26 141.984 151.098C142.161 150.933 142.371 150.851 142.615 150.851C142.862 150.851 143.072 150.933 143.246 151.098C143.422 151.26 143.51 151.457 143.51 151.69C143.51 151.92 143.422 152.118 143.246 152.283C143.072 152.445 142.862 152.526 142.615 152.526ZM147.824 160.128C147.17 160.128 146.609 159.984 146.14 159.697C145.674 159.411 145.315 159.014 145.062 158.509C144.812 158 144.687 157.415 144.687 156.753C144.687 156.088 144.815 155.501 145.071 154.993C145.326 154.482 145.687 154.084 146.153 153.8C146.622 153.513 147.176 153.369 147.815 153.369C148.346 153.369 148.816 153.467 149.225 153.663C149.637 153.857 149.966 154.131 150.21 154.486C150.454 154.838 150.593 155.25 150.627 155.722H149.153C149.093 155.406 148.951 155.143 148.727 154.933C148.505 154.72 148.208 154.614 147.836 154.614C147.521 154.614 147.244 154.699 147.005 154.869C146.767 155.037 146.581 155.278 146.447 155.594C146.316 155.909 146.251 156.287 146.251 156.727C146.251 157.173 146.316 157.557 146.447 157.878C146.578 158.196 146.761 158.442 146.997 158.615C147.235 158.786 147.515 158.871 147.836 158.871C148.064 158.871 148.267 158.828 148.446 158.743C148.627 158.655 148.779 158.528 148.902 158.364C149.024 158.199 149.108 157.999 149.153 157.763H150.627C150.591 158.226 150.454 158.636 150.218 158.994C149.983 159.349 149.662 159.628 149.255 159.83C148.849 160.028 148.372 160.128 147.824 160.128ZM153.3 157.946L153.296 156.084H153.543L155.896 153.455H157.698L154.805 156.676H154.485L153.3 157.946ZM151.894 160V151.273H153.437V160H151.894ZM156.002 160L153.871 157.021L154.911 155.935L157.847 160H156.002ZM164.971 153.455V154.648H161.208V153.455H164.971ZM162.137 151.886H163.68V158.031C163.68 158.239 163.711 158.398 163.774 158.509C163.839 158.616 163.924 158.69 164.029 158.73C164.135 158.77 164.251 158.79 164.379 158.79C164.475 158.79 164.564 158.783 164.643 158.768C164.725 158.754 164.788 158.741 164.831 158.73L165.091 159.936C165.008 159.964 164.89 159.996 164.737 160.03C164.586 160.064 164.402 160.084 164.183 160.089C163.797 160.101 163.449 160.043 163.139 159.915C162.829 159.784 162.583 159.582 162.402 159.31C162.223 159.037 162.135 158.696 162.137 158.287V151.886ZM169.046 160.128C168.407 160.128 167.853 159.987 167.384 159.706C166.915 159.425 166.552 159.031 166.293 158.526C166.038 158.02 165.91 157.429 165.91 156.753C165.91 156.077 166.038 155.484 166.293 154.976C166.552 154.467 166.915 154.072 167.384 153.791C167.853 153.51 168.407 153.369 169.046 153.369C169.685 153.369 170.239 153.51 170.708 153.791C171.177 154.072 171.539 154.467 171.795 154.976C172.053 155.484 172.183 156.077 172.183 156.753C172.183 157.429 172.053 158.02 171.795 158.526C171.539 159.031 171.177 159.425 170.708 159.706C170.239 159.987 169.685 160.128 169.046 160.128ZM169.055 158.892C169.401 158.892 169.691 158.797 169.924 158.607C170.157 158.413 170.33 158.155 170.444 157.831C170.56 157.507 170.619 157.146 170.619 156.749C170.619 156.348 170.56 155.986 170.444 155.662C170.33 155.335 170.157 155.075 169.924 154.882C169.691 154.689 169.401 154.592 169.055 154.592C168.7 154.592 168.404 154.689 168.168 154.882C167.935 155.075 167.761 155.335 167.644 155.662C167.531 155.986 167.474 156.348 167.474 156.749C167.474 157.146 167.531 157.507 167.644 157.831C167.761 158.155 167.935 158.413 168.168 158.607C168.404 158.797 168.7 158.892 169.055 158.892ZM180.64 157.247V153.455H182.183V160H180.687V158.837H180.619C180.471 159.203 180.228 159.503 179.89 159.736C179.555 159.969 179.142 160.085 178.65 160.085C178.221 160.085 177.842 159.99 177.512 159.8C177.186 159.607 176.93 159.327 176.745 158.96C176.561 158.591 176.468 158.145 176.468 157.622V153.455H178.011V157.384C178.011 157.798 178.125 158.128 178.352 158.372C178.579 158.616 178.877 158.739 179.247 158.739C179.474 158.739 179.694 158.683 179.907 158.572C180.12 158.462 180.295 158.297 180.431 158.078C180.571 157.857 180.64 157.58 180.64 157.247ZM183.769 162.455V153.455H185.286V154.537H185.376C185.455 154.378 185.567 154.209 185.712 154.03C185.857 153.848 186.053 153.693 186.3 153.565C186.548 153.435 186.863 153.369 187.246 153.369C187.752 153.369 188.208 153.499 188.614 153.757C189.023 154.013 189.347 154.392 189.586 154.895C189.827 155.395 189.948 156.009 189.948 156.736C189.948 157.455 189.83 158.065 189.594 158.568C189.359 159.071 189.038 159.455 188.631 159.719C188.225 159.983 187.765 160.115 187.251 160.115C186.876 160.115 186.565 160.053 186.317 159.928C186.07 159.803 185.871 159.652 185.721 159.476C185.573 159.297 185.458 159.128 185.376 158.969H185.312V162.455H183.769ZM185.282 156.727C185.282 157.151 185.342 157.521 185.461 157.839C185.583 158.158 185.758 158.406 185.985 158.585C186.215 158.761 186.494 158.849 186.82 158.849C187.161 158.849 187.447 158.759 187.677 158.577C187.907 158.392 188.08 158.141 188.197 157.822C188.316 157.501 188.376 157.136 188.376 156.727C188.376 156.321 188.317 155.96 188.201 155.645C188.085 155.33 187.911 155.082 187.681 154.903C187.451 154.724 187.164 154.635 186.82 154.635C186.491 154.635 186.211 154.722 185.981 154.895C185.751 155.068 185.576 155.311 185.457 155.624C185.34 155.936 185.282 156.304 185.282 156.727ZM192.812 151.273V160H191.269V151.273H192.812ZM197.253 160.128C196.614 160.128 196.06 159.987 195.591 159.706C195.123 159.425 194.759 159.031 194.5 158.526C194.245 158.02 194.117 157.429 194.117 156.753C194.117 156.077 194.245 155.484 194.5 154.976C194.759 154.467 195.123 154.072 195.591 153.791C196.06 153.51 196.614 153.369 197.253 153.369C197.892 153.369 198.446 153.51 198.915 153.791C199.384 154.072 199.746 154.467 200.002 154.976C200.26 155.484 200.39 156.077 200.39 156.753C200.39 157.429 200.26 158.02 200.002 158.526C199.746 159.031 199.384 159.425 198.915 159.706C198.446 159.987 197.892 160.128 197.253 160.128ZM197.262 158.892C197.608 158.892 197.898 158.797 198.131 158.607C198.364 158.413 198.537 158.155 198.651 157.831C198.767 157.507 198.826 157.146 198.826 156.749C198.826 156.348 198.767 155.986 198.651 155.662C198.537 155.335 198.364 155.075 198.131 154.882C197.898 154.689 197.608 154.592 197.262 154.592C196.907 154.592 196.611 154.689 196.375 154.882C196.142 155.075 195.968 155.335 195.851 155.662C195.738 155.986 195.681 156.348 195.681 156.749C195.681 157.146 195.738 157.507 195.851 157.831C195.968 158.155 196.142 158.413 196.375 158.607C196.611 158.797 196.907 158.892 197.262 158.892ZM203.582 160.132C203.168 160.132 202.794 160.058 202.462 159.911C202.132 159.76 201.871 159.538 201.678 159.246C201.487 158.953 201.392 158.592 201.392 158.163C201.392 157.794 201.46 157.489 201.597 157.247C201.733 157.006 201.919 156.812 202.155 156.668C202.391 156.523 202.656 156.413 202.952 156.339C203.25 156.263 203.558 156.207 203.876 156.173C204.26 156.134 204.571 156.098 204.81 156.067C205.048 156.033 205.222 155.982 205.33 155.913C205.44 155.842 205.496 155.733 205.496 155.585V155.56C205.496 155.239 205.401 154.99 205.21 154.814C205.02 154.638 204.746 154.55 204.388 154.55C204.01 154.55 203.71 154.632 203.489 154.797C203.27 154.962 203.122 155.156 203.045 155.381L201.605 155.176C201.719 154.778 201.906 154.446 202.168 154.179C202.429 153.909 202.749 153.707 203.126 153.574C203.504 153.438 203.922 153.369 204.379 153.369C204.695 153.369 205.009 153.406 205.321 153.48C205.634 153.554 205.919 153.676 206.178 153.847C206.436 154.014 206.643 154.243 206.8 154.533C206.959 154.822 207.038 155.185 207.038 155.619V160H205.555V159.101H205.504C205.411 159.283 205.278 159.453 205.108 159.612C204.94 159.768 204.729 159.895 204.473 159.991C204.22 160.085 203.923 160.132 203.582 160.132ZM203.983 158.999C204.293 158.999 204.561 158.937 204.788 158.815C205.016 158.69 205.19 158.526 205.312 158.321C205.438 158.116 205.5 157.893 205.5 157.652V156.881C205.452 156.92 205.369 156.957 205.253 156.991C205.139 157.026 205.011 157.055 204.869 157.081C204.727 157.107 204.587 157.129 204.447 157.149C204.308 157.169 204.188 157.186 204.085 157.2C203.855 157.232 203.649 157.283 203.467 157.354C203.286 157.425 203.142 157.524 203.037 157.652C202.932 157.777 202.879 157.939 202.879 158.138C202.879 158.422 202.983 158.636 203.19 158.781C203.398 158.926 203.662 158.999 203.983 158.999ZM211.018 160.115C210.504 160.115 210.044 159.983 209.638 159.719C209.232 159.455 208.911 159.071 208.675 158.568C208.439 158.065 208.321 157.455 208.321 156.736C208.321 156.009 208.44 155.395 208.679 154.895C208.92 154.392 209.246 154.013 209.655 153.757C210.064 153.499 210.52 153.369 211.023 153.369C211.406 153.369 211.722 153.435 211.969 153.565C212.216 153.693 212.412 153.848 212.557 154.03C212.702 154.209 212.814 154.378 212.893 154.537H212.957V151.273H214.504V160H212.987V158.969H212.893C212.814 159.128 212.699 159.297 212.548 159.476C212.398 159.652 212.199 159.803 211.952 159.928C211.705 160.053 211.393 160.115 211.018 160.115ZM211.449 158.849C211.776 158.849 212.054 158.761 212.284 158.585C212.514 158.406 212.689 158.158 212.808 157.839C212.928 157.521 212.987 157.151 212.987 156.727C212.987 156.304 212.928 155.936 212.808 155.624C212.692 155.311 212.518 155.068 212.288 154.895C212.061 154.722 211.781 154.635 211.449 154.635C211.105 154.635 210.818 154.724 210.588 154.903C210.358 155.082 210.185 155.33 210.068 155.645C209.952 155.96 209.893 156.321 209.893 156.727C209.893 157.136 209.952 157.501 210.068 157.822C210.188 158.141 210.362 158.392 210.592 158.577C210.825 158.759 211.111 158.849 211.449 158.849ZM221.577 160.153C221.162 160.153 220.786 160.075 220.448 159.919C220.11 159.76 219.841 159.531 219.642 159.233C219.444 158.932 219.344 158.568 219.344 158.142C219.344 157.767 219.418 157.463 219.566 157.23C219.713 156.994 219.911 156.81 220.158 156.676C220.405 156.543 220.678 156.443 220.976 156.378C221.277 156.31 221.58 156.256 221.884 156.216C222.282 156.165 222.604 156.126 222.851 156.101C223.101 156.072 223.283 156.026 223.397 155.96C223.513 155.895 223.571 155.781 223.571 155.619V155.585C223.571 155.165 223.456 154.838 223.226 154.605C222.999 154.372 222.654 154.256 222.191 154.256C221.711 154.256 221.334 154.361 221.061 154.571C220.789 154.781 220.597 155.006 220.486 155.244L219.532 154.903C219.702 154.506 219.929 154.196 220.213 153.974C220.5 153.75 220.813 153.594 221.151 153.506C221.492 153.415 221.827 153.369 222.157 153.369C222.367 153.369 222.608 153.395 222.881 153.446C223.157 153.494 223.422 153.595 223.678 153.749C223.936 153.902 224.151 154.134 224.321 154.443C224.492 154.753 224.577 155.168 224.577 155.688V160H223.571V159.114H223.52C223.452 159.256 223.338 159.408 223.179 159.57C223.02 159.732 222.809 159.869 222.544 159.983C222.28 160.097 221.958 160.153 221.577 160.153ZM221.73 159.25C222.128 159.25 222.463 159.172 222.736 159.016C223.012 158.859 223.219 158.658 223.358 158.411C223.5 158.163 223.571 157.903 223.571 157.631V156.71C223.529 156.761 223.435 156.808 223.29 156.851C223.148 156.891 222.983 156.926 222.796 156.957C222.611 156.986 222.431 157.011 222.255 157.034C222.081 157.054 221.941 157.071 221.833 157.085C221.571 157.119 221.327 157.175 221.1 157.251C220.875 157.325 220.694 157.437 220.554 157.588C220.418 157.736 220.35 157.937 220.35 158.193C220.35 158.543 220.479 158.807 220.738 158.986C220.999 159.162 221.33 159.25 221.73 159.25ZM227.418 156.062V160H226.413V153.455H227.384V154.477H227.469C227.623 154.145 227.856 153.878 228.168 153.676C228.481 153.472 228.884 153.369 229.379 153.369C229.822 153.369 230.21 153.46 230.542 153.642C230.874 153.821 231.133 154.094 231.317 154.46C231.502 154.824 231.594 155.284 231.594 155.841V160H230.589V155.909C230.589 155.395 230.455 154.994 230.188 154.707C229.921 154.418 229.555 154.273 229.089 154.273C228.768 154.273 228.481 154.342 228.228 154.482C227.978 154.621 227.781 154.824 227.636 155.091C227.491 155.358 227.418 155.682 227.418 156.062ZM236.807 160V153.455H237.813V160H236.807ZM237.319 152.364C237.123 152.364 236.953 152.297 236.811 152.163C236.672 152.03 236.603 151.869 236.603 151.682C236.603 151.494 236.672 151.334 236.811 151.2C236.953 151.067 237.123 151 237.319 151C237.515 151 237.682 151.067 237.821 151.2C237.963 151.334 238.034 151.494 238.034 151.682C238.034 151.869 237.963 152.03 237.821 152.163C237.682 152.297 237.515 152.364 237.319 152.364ZM239.655 160V153.455H240.626V154.477H240.712C240.848 154.128 241.068 153.857 241.372 153.663C241.676 153.467 242.041 153.369 242.467 153.369C242.899 153.369 243.259 153.467 243.545 153.663C243.835 153.857 244.061 154.128 244.223 154.477H244.291C244.459 154.139 244.71 153.871 245.045 153.672C245.381 153.47 245.783 153.369 246.251 153.369C246.837 153.369 247.315 153.553 247.688 153.919C248.06 154.283 248.246 154.849 248.246 155.619V160H247.24V155.619C247.24 155.136 247.108 154.791 246.844 154.584C246.58 154.376 246.268 154.273 245.911 154.273C245.45 154.273 245.094 154.412 244.841 154.69C244.588 154.966 244.462 155.315 244.462 155.739V160H243.439V155.517C243.439 155.145 243.318 154.845 243.077 154.618C242.835 154.388 242.524 154.273 242.143 154.273C241.882 154.273 241.638 154.342 241.411 154.482C241.186 154.621 241.004 154.814 240.865 155.061C240.729 155.305 240.661 155.588 240.661 155.909V160H239.655ZM252.011 160.153C251.596 160.153 251.219 160.075 250.881 159.919C250.543 159.76 250.275 159.531 250.076 159.233C249.877 158.932 249.778 158.568 249.778 158.142C249.778 157.767 249.852 157.463 249.999 157.23C250.147 156.994 250.344 156.81 250.592 156.676C250.839 156.543 251.112 156.443 251.41 156.378C251.711 156.31 252.013 156.256 252.317 156.216C252.715 156.165 253.038 156.126 253.285 156.101C253.535 156.072 253.717 156.026 253.83 155.96C253.947 155.895 254.005 155.781 254.005 155.619V155.585C254.005 155.165 253.89 154.838 253.66 154.605C253.433 154.372 253.087 154.256 252.624 154.256C252.144 154.256 251.768 154.361 251.495 154.571C251.222 154.781 251.031 155.006 250.92 155.244L249.965 154.903C250.136 154.506 250.363 154.196 250.647 153.974C250.934 153.75 251.246 153.594 251.585 153.506C251.925 153.415 252.261 153.369 252.59 153.369C252.8 153.369 253.042 153.395 253.315 153.446C253.59 153.494 253.856 153.595 254.112 153.749C254.37 153.902 254.585 154.134 254.755 154.443C254.925 154.753 255.011 155.168 255.011 155.688V160H254.005V159.114H253.954C253.886 159.256 253.772 159.408 253.613 159.57C253.454 159.732 253.242 159.869 252.978 159.983C252.714 160.097 252.391 160.153 252.011 160.153ZM252.164 159.25C252.562 159.25 252.897 159.172 253.17 159.016C253.445 158.859 253.653 158.658 253.792 158.411C253.934 158.163 254.005 157.903 254.005 157.631V156.71C253.962 156.761 253.869 156.808 253.724 156.851C253.582 156.891 253.417 156.926 253.229 156.957C253.045 156.986 252.864 157.011 252.688 157.034C252.515 157.054 252.374 157.071 252.266 157.085C252.005 157.119 251.761 157.175 251.533 157.251C251.309 157.325 251.127 157.437 250.988 157.588C250.852 157.736 250.783 157.937 250.783 158.193C250.783 158.543 250.913 158.807 251.171 158.986C251.433 159.162 251.763 159.25 252.164 159.25ZM259.488 162.591C259.002 162.591 258.585 162.528 258.235 162.403C257.886 162.281 257.595 162.119 257.362 161.918C257.132 161.719 256.949 161.506 256.812 161.278L257.613 160.716C257.704 160.835 257.819 160.972 257.958 161.125C258.098 161.281 258.288 161.416 258.529 161.53C258.774 161.646 259.093 161.705 259.488 161.705C260.017 161.705 260.453 161.577 260.797 161.321C261.14 161.065 261.312 160.665 261.312 160.119V158.79H261.227C261.153 158.909 261.048 159.057 260.912 159.233C260.778 159.406 260.585 159.561 260.332 159.697C260.082 159.831 259.744 159.898 259.318 159.898C258.789 159.898 258.315 159.773 257.895 159.523C257.477 159.273 257.146 158.909 256.902 158.432C256.66 157.955 256.539 157.375 256.539 156.693C256.539 156.023 256.657 155.439 256.893 154.942C257.129 154.442 257.457 154.055 257.877 153.783C258.298 153.507 258.784 153.369 259.335 153.369C259.761 153.369 260.099 153.44 260.349 153.582C260.602 153.722 260.795 153.881 260.929 154.06C261.065 154.236 261.17 154.381 261.244 154.494H261.346V153.455H262.318V160.188C262.318 160.75 262.19 161.207 261.934 161.56C261.681 161.915 261.341 162.175 260.912 162.339C260.485 162.507 260.011 162.591 259.488 162.591ZM259.454 158.994C259.858 158.994 260.199 158.902 260.477 158.717C260.755 158.533 260.967 158.267 261.112 157.92C261.257 157.574 261.329 157.159 261.329 156.676C261.329 156.205 261.258 155.788 261.116 155.428C260.974 155.067 260.764 154.784 260.485 154.58C260.207 154.375 259.863 154.273 259.454 154.273C259.028 154.273 258.673 154.381 258.389 154.597C258.108 154.812 257.896 155.102 257.754 155.466C257.615 155.83 257.545 156.233 257.545 156.676C257.545 157.131 257.616 157.533 257.758 157.882C257.903 158.229 258.116 158.501 258.397 158.7C258.681 158.896 259.034 158.994 259.454 158.994ZM266.903 160.136C266.272 160.136 265.728 159.997 265.271 159.719C264.816 159.438 264.466 159.045 264.218 158.543C263.974 158.037 263.852 157.449 263.852 156.778C263.852 156.108 263.974 155.517 264.218 155.006C264.466 154.491 264.809 154.091 265.25 153.804C265.693 153.514 266.21 153.369 266.801 153.369C267.142 153.369 267.478 153.426 267.811 153.54C268.143 153.653 268.446 153.838 268.718 154.094C268.991 154.347 269.208 154.682 269.37 155.099C269.532 155.517 269.613 156.031 269.613 156.642V157.068H264.568V156.199H268.591C268.591 155.83 268.517 155.5 268.369 155.21C268.224 154.92 268.017 154.692 267.747 154.524C267.48 154.357 267.164 154.273 266.801 154.273C266.4 154.273 266.054 154.372 265.761 154.571C265.471 154.767 265.248 155.023 265.092 155.338C264.936 155.653 264.858 155.991 264.858 156.352V156.932C264.858 157.426 264.943 157.845 265.113 158.189C265.287 158.53 265.527 158.79 265.833 158.969C266.14 159.145 266.497 159.233 266.903 159.233C267.167 159.233 267.406 159.196 267.619 159.122C267.835 159.045 268.021 158.932 268.177 158.781C268.333 158.628 268.454 158.437 268.539 158.21L269.511 158.483C269.409 158.812 269.237 159.102 268.995 159.352C268.754 159.599 268.456 159.793 268.1 159.932C267.745 160.068 267.346 160.136 266.903 160.136Z" fill="#10528F"/>
<path d="M203.868 121.042H198.243C197.307 121.042 196.555 120.372 196.555 119.539V109.021H190.389C189.137 109.021 188.511 107.675 189.397 106.886L200.092 97.3568C200.619 96.8872 201.484 96.8872 202.011 97.3568L212.713 106.886C213.599 107.675 212.973 109.021 211.721 109.021H205.555V119.539C205.555 120.372 204.803 121.042 203.868 121.042ZM219.055 120.541V127.553C219.055 128.386 218.303 129.056 217.368 129.056H184.743C183.807 129.056 183.055 128.386 183.055 127.553V120.541C183.055 119.708 183.807 119.038 184.743 119.038H194.305V119.539C194.305 121.474 196.07 123.045 198.243 123.045H203.868C206.04 123.045 207.805 121.474 207.805 119.539V119.038H217.368C218.303 119.038 219.055 119.708 219.055 120.541ZM210.336 126.051C210.336 125.362 209.703 124.798 208.93 124.798C208.157 124.798 207.524 125.362 207.524 126.051C207.524 126.739 208.157 127.303 208.93 127.303C209.703 127.303 210.336 126.739 210.336 126.051ZM214.836 126.051C214.836 125.362 214.203 124.798 213.43 124.798C212.657 124.798 212.024 125.362 212.024 126.051C212.024 126.739 212.657 127.303 213.43 127.303C214.203 127.303 214.836 126.739 214.836 126.051Z" fill="#10528F"/>
</svg>
