<svg width="96" height="90" viewBox="0 0 96 90" fill="none" xmlns="http://www.w3.org/2000/svg">
<rect width="96" height="90" rx="10" fill="#E0E0E0" fill-opacity="0.8"/>
<path d="M53.3438 52.5H48.6562C47.877 52.5 47.25 51.873 47.25 51.0937V41.25H42.1113C41.0684 41.25 40.5469 39.9902 41.2852 39.252L50.1973 30.334C50.6367 29.8945 51.3574 29.8945 51.7969 30.334L60.7148 39.252C61.4531 39.9902 60.9316 41.25 59.8887 41.25H54.75V51.0937C54.75 51.873 54.123 52.5 53.3438 52.5ZM66 52.0312V58.5937C66 59.373 65.373 60 64.5938 60H37.4062C36.627 60 36 59.373 36 58.5937V52.0312C36 51.252 36.627 50.625 37.4062 50.625H45.375V51.0937C45.375 52.9043 46.8457 54.375 48.6562 54.375H53.3438C55.1543 54.375 56.625 52.9043 56.625 51.0937V50.625H64.5938C65.373 50.625 66 51.252 66 52.0312ZM58.7344 57.1875C58.7344 56.543 58.207 56.0156 57.5625 56.0156C56.918 56.0156 56.3906 56.543 56.3906 57.1875C56.3906 57.832 56.918 58.3594 57.5625 58.3594C58.207 58.3594 58.7344 57.832 58.7344 57.1875ZM62.4844 57.1875C62.4844 56.543 61.957 56.0156 61.3125 56.0156C60.668 56.0156 60.1406 56.543 60.1406 57.1875C60.1406 57.832 60.668 58.3594 61.3125 58.3594C61.957 58.3594 62.4844 57.832 62.4844 57.1875Z" fill="#10528F"/>
</svg>
